<svg width="180" height="59" viewBox="0 0 180 59" fill="none" xmlns="http://www.w3.org/2000/svg">
<g clip-path="url(#clip0_541_949)">
<path d="M46.2015 20.2343C46.2015 19.1009 46.2015 18.5342 46.415 18.0982C46.6189 17.6808 46.9558 17.3433 47.3726 17.1389C47.8075 16.9253 48.3734 16.9253 49.5049 16.9253H84.7105C85.842 16.9253 86.4076 16.9253 86.8427 17.1389C87.2593 17.3433 87.5964 17.6808 87.8004 18.0982C88.0135 18.5342 88.0135 19.1009 88.0135 20.2343V55.5022C88.0135 56.6356 88.0135 57.2022 87.8004 57.6381C87.5964 58.0557 87.2593 58.393 86.8427 58.5974C86.4076 58.8111 85.842 58.8111 84.7105 58.8111H49.5049C48.3734 58.8111 47.8075 58.8111 47.3726 58.5974C46.9558 58.393 46.6189 58.0557 46.415 57.6381C46.2015 57.2022 46.2015 56.6356 46.2015 55.5022V20.2343Z" fill="white"/>
<path d="M92.1948 20.2343C92.1948 19.1009 92.1948 18.5342 92.4079 18.0982C92.6122 17.6808 92.949 17.3433 93.3658 17.1389C93.8008 16.9253 94.3666 16.9253 95.4981 16.9253H130.704C131.835 16.9253 132.401 16.9253 132.836 17.1389C133.253 17.3433 133.59 17.6808 133.794 18.0982C134.007 18.5342 134.007 19.1009 134.007 20.2343V55.5022C134.007 56.6356 134.007 57.2022 133.794 57.6381C133.59 58.0557 133.253 58.393 132.836 58.5974C132.401 58.8111 131.835 58.8111 130.704 58.8111H95.4981C94.3666 58.8111 93.8008 58.8111 93.3658 58.5974C92.949 58.393 92.6122 58.0557 92.4079 57.6381C92.1948 57.2022 92.1948 56.6356 92.1948 55.5022V20.2343Z" fill="white"/>
<path d="M138.188 20.2343C138.188 19.1009 138.188 18.5342 138.401 18.0982C138.605 17.6808 138.942 17.3433 139.359 17.1389C139.794 16.9253 140.36 16.9253 141.491 16.9253H176.697C177.828 16.9253 178.394 16.9253 178.829 17.1389C179.246 17.3433 179.583 17.6808 179.787 18.0982C180 18.5342 180 19.1009 180 20.2343V55.5022C180 56.6356 180 57.2022 179.787 57.6381C179.583 58.0557 179.246 58.393 178.829 58.5974C178.394 58.8111 177.828 58.8111 176.697 58.8111H141.491C140.36 58.8111 139.794 58.8111 139.359 58.5974C138.942 58.393 138.605 58.0557 138.401 57.6381C138.188 57.2022 138.188 56.6356 138.188 55.5022V20.2343Z" fill="white"/>
<path d="M0.42162 1.34383C0.208435 1.77976 0.208435 2.34647 0.208435 3.47989V55.5022C0.208435 56.6356 0.208435 57.2021 0.42162 57.638C0.625734 58.0556 0.962649 58.3929 1.3793 58.5974C1.81446 58.811 2.38017 58.811 3.51159 58.811H38.7173C39.8487 58.811 40.4143 58.811 40.8495 58.5974C41.2661 58.3929 41.6032 58.0556 41.8072 57.638C42.0203 57.2021 42.0203 56.6356 42.0203 55.5022V20.2342C42.0203 19.1008 42.0203 18.5341 41.8072 18.0982C41.6032 17.6808 41.2661 17.3433 40.8495 17.1388C40.4143 16.9252 39.8487 16.9252 38.7173 16.9252H20.2364C19.105 16.9252 18.5393 16.9252 18.1041 16.7117C17.6875 16.5072 17.3505 16.1697 17.1464 15.7523C16.9332 15.3164 16.9332 14.7497 16.9332 13.6163V3.47989C16.9332 2.34647 16.9332 1.77976 16.7201 1.34383C16.5159 0.926444 16.179 0.588935 15.7624 0.384458C15.3272 0.170898 14.7615 0.170898 13.6301 0.170898H3.51159C2.38017 0.170898 1.81446 0.170898 1.3793 0.384458C0.962649 0.588935 0.625734 0.926444 0.42162 1.34383Z" fill="white"/>
</g>
<defs>
<clipPath id="clip0_541_949">
<rect width="180" height="59" fill="white"/>
</clipPath>
</defs>
</svg>
