<svg width="28" height="28" viewBox="0 0 28 28" fill="none" xmlns="http://www.w3.org/2000/svg">
<path d="M28 14C28 21.732 21.732 28 14 28C6.26801 28 0 21.732 0 14C0 6.26801 6.26801 0 14 0C21.732 0 28 6.26801 28 14Z" fill="#2775CA"/>
<path d="M16.7423 5.40017V4.13557C16.7423 3.9437 16.9241 3.80486 17.1061 3.86539C19.8922 4.79165 24.8247 7.80711 24.8247 13.4797C24.8247 19.1431 19.9083 22.4397 17.1198 23.5311C16.9352 23.6033 16.7423 23.4638 16.7423 23.2656V21.9978C16.7423 21.8874 16.8046 21.7874 16.9029 21.7371C18.874 20.7291 22.923 17.8203 22.923 13.4797C22.923 9.42871 19.1817 6.54408 16.9343 5.67594C16.8197 5.63167 16.7423 5.52303 16.7423 5.40017Z" fill="white"/>
<path d="M11.5464 5.40265V4.13949C11.5464 3.94644 11.3625 3.80747 11.1801 3.87071C8.49081 4.80315 3.75258 7.81792 3.75258 13.4797C3.75258 19.1317 8.47438 22.4265 11.1661 23.5245C11.3509 23.5999 11.5464 23.4603 11.5464 23.2607V21.9949C11.5464 21.886 11.4857 21.7871 11.3895 21.736C9.48798 20.727 5.58642 17.8187 5.58642 13.4797C5.58642 9.43106 9.18995 6.54742 11.3574 5.67745C11.4703 5.63214 11.5464 5.5243 11.5464 5.40265Z" fill="white"/>
<path d="M17.8969 10.5763L16.6727 11.2726C16.5243 10.8084 15.9159 9.8799 14.6695 9.8799C13.423 9.8799 12.6663 11.35 12.4437 12.085H15.2259C15.3001 12.085 15.4485 12.1547 15.4485 12.4332C15.4485 12.7117 14.9292 13.323 14.6695 13.5938H12.2211V14.4062H15.2259C15.3001 14.4062 15.4485 14.4758 15.4485 14.7544C15.4485 15.0329 14.855 15.6442 14.5582 15.915H12.4437C12.4437 16.2632 13.2227 18.004 14.6695 18.004C15.8269 18.004 16.4872 16.9982 16.6727 16.4953L17.8969 17.0756C17.7856 17.9267 16.9843 19.6289 14.6695 19.6289C12.4665 19.6289 11.2311 17.947 10.7669 15.915H8.88237C8.80818 15.8376 8.65979 15.6132 8.65979 15.3347C8.65979 15.0561 9.17915 14.5996 9.43883 14.4062H10.5631C10.5555 14.2514 10.5517 14.0965 10.5517 13.942C10.5517 13.8258 10.5537 13.7097 10.5576 13.5938H8.88237C8.80818 13.5164 8.65979 13.292 8.65979 13.0135C8.65979 12.735 9.17915 12.2785 9.43883 12.085H10.7314C11.1516 10.0395 12.344 8.37113 14.6695 8.37113C17.0734 8.37113 17.8227 9.84122 17.8969 10.5763Z" fill="white"/>
</svg>
