<?xml version="1.0" encoding="UTF-8"?>
<svg version="1.1" xmlns="http://www.w3.org/2000/svg" width="576" height="576">
<path d="M0 0 C1.05148224 0.00054382 2.10296448 0.00108765 3.18630981 0.00164795 C20.67811246 0.04309025 37.54541761 0.98755582 54.75 4.375 C55.81541016 4.58398926 56.88082031 4.79297852 57.97851562 5.00830078 C81.77251913 9.86533361 104.97014932 17.64042622 126.75 28.375 C127.59191895 28.78443848 128.43383789 29.19387695 129.30126953 29.61572266 C159.63541072 44.48473178 191.17595061 66.15343713 213.03125 92.34765625 C215.08543452 94.77066027 217.26299612 97.05942862 219.4375 99.375 C253.82055496 137.19636046 275.2251444 186.48358749 285 236.1875 C285.15122314 236.9496582 285.30244629 237.71181641 285.45825195 238.49707031 C288.48108466 254.82139105 289.15737191 271.06088455 289.125 287.625 C289.12418427 289.20222336 289.12418427 289.20222336 289.12335205 290.81130981 C289.08190975 308.30311246 288.13744418 325.17041761 284.75 342.375 C284.54101074 343.44041016 284.33202148 344.50582031 284.11669922 345.60351562 C279.25966639 369.39751913 271.48457378 392.59514932 260.75 414.375 C260.13584229 415.63787842 260.13584229 415.63787842 259.50927734 416.92626953 C244.64026822 447.26041072 222.97156287 478.80095061 196.77734375 500.65625 C194.35433973 502.71043452 192.06557138 504.88799612 189.75 507.0625 C151.92863954 541.44555496 102.64141251 562.8501444 52.9375 572.625 C52.1753418 572.77622314 51.41318359 572.92744629 50.62792969 573.08325195 C34.30360895 576.10608466 18.06411545 576.78237191 1.5 576.75 C0.44851776 576.74945618 -0.60296448 576.74891235 -1.68630981 576.74835205 C-19.17811246 576.70690975 -36.04541761 575.76244418 -53.25 572.375 C-54.84811523 572.06151611 -54.84811523 572.06151611 -56.47851562 571.74169922 C-80.27251913 566.88466639 -103.47014932 559.10957378 -125.25 548.375 C-126.51287842 547.76084229 -126.51287842 547.76084229 -127.80126953 547.13427734 C-158.13541072 532.26526822 -189.67595061 510.59656287 -211.53125 484.40234375 C-213.58543452 481.97933973 -215.76299612 479.69057138 -217.9375 477.375 C-252.32055496 439.55363954 -273.7251444 390.26641251 -283.5 340.5625 C-283.72683472 339.4192627 -283.72683472 339.4192627 -283.95825195 338.25292969 C-286.98108466 321.92860895 -287.65737191 305.68911545 -287.625 289.125 C-287.62445618 288.07351776 -287.62391235 287.02203552 -287.62335205 285.93869019 C-287.58190975 268.44688754 -286.63744418 251.57958239 -283.25 234.375 C-283.04101074 233.30958984 -282.83202148 232.24417969 -282.61669922 231.14648438 C-277.75966639 207.35248087 -269.98457378 184.15485068 -259.25 162.375 C-258.84056152 161.53308105 -258.43112305 160.69116211 -258.00927734 159.82373047 C-243.14026822 129.48958928 -221.47156287 97.94904939 -195.27734375 76.09375 C-192.85433973 74.03956548 -190.56557138 71.86200388 -188.25 69.6875 C-150.42863954 35.30444504 -101.14141251 13.8998556 -51.4375 4.125 C-50.6753418 3.97377686 -49.91318359 3.82255371 -49.12792969 3.66674805 C-32.80360895 0.64391534 -16.56411545 -0.03237191 0 0 Z " fill="#F7F9FA" transform="translate(287.25,-0.375)"/>
<path d="M0 0 C11.69807114 -0.6757331 23.39143232 -1.18892438 35.10512447 -1.50255299 C40.54744153 -1.65322173 45.97631944 -1.85675293 51.41088867 -2.18774414 C87.56227276 -4.33233617 87.56227276 -4.33233617 95.56304932 2.70635986 C100.99456385 8.54900445 104.13219103 15.79016635 106.79132938 23.21948719 C109.41711802 30.55369989 113.42142692 36.88510069 117.5 43.5 C118.91552598 45.88645741 120.31303464 48.28281005 121.7109375 50.6796875 C122.29884064 51.68222565 122.29884064 51.68222565 122.89862061 52.70501709 C125.08409102 56.43377839 127.2650457 60.16515028 129.44329834 63.89813232 C130.96917582 66.51271619 132.49661776 69.12638452 134.02416992 71.73999023 C134.74353421 72.97179589 135.46215378 74.20403684 136.17993164 75.43676758 C140.62352651 83.06781369 145.1981036 90.588743 150 98 C171.58458032 77.60026248 179.33938858 27.96366851 184 0 C209.41 0 234.82 0 261 0 C256.5213515 6.71797275 252.1106481 12.82831769 247 19 C246.58588867 19.50047852 246.17177734 20.00095703 245.74511719 20.51660156 C235.56370617 32.78418143 224.79174578 44.3812744 213.5012207 55.62915039 C211.79976222 57.32519726 210.10378737 59.02659821 208.40820312 60.72851562 C202.77510507 66.36545865 197.10091643 71.86458579 191 77 C189.87038682 77.97313833 188.74146416 78.94707888 187.61328125 79.921875 C186.51349453 80.86513592 185.41322536 81.80783458 184.3125 82.75 C183.72017578 83.25732666 183.12785156 83.76465332 182.51757812 84.28735352 C176.36664283 89.55038206 170.19323049 94.7868153 164 100 C163.45988281 100.47066895 162.91976562 100.94133789 162.36328125 101.42626953 C158.21589612 105 158.21589612 105 156 105 C159.12712208 110.96603014 162.6209417 116.43111571 166.64453125 121.8359375 C168 124 168 124 168 127 C168.7115625 127.40089844 169.423125 127.80179687 170.15625 128.21484375 C174.04194406 130.65407752 175.973238 133.79461082 178.5 137.5625 C179.56273825 139.10750314 180.62657684 140.65174987 181.69140625 142.1953125 C182.23684082 142.99098633 182.78227539 143.78666016 183.34423828 144.60644531 C185.98541558 148.42450817 188.71012415 152.18076238 191.4375 155.9375 C192.53001747 157.44656423 193.62246505 158.95567906 194.71484375 160.46484375 C195.52864502 161.58802002 195.52864502 161.58802002 196.35888672 162.73388672 C199.61845318 167.23482333 202.8697262 171.74175435 206.12255859 176.24755859 C208.84069523 180.01207565 211.56081405 183.77512708 214.28515625 187.53515625 C220.0698625 195.52356012 225.8079679 203.54115819 231.48291016 211.60791016 C236.7007854 219.01486449 242.01198725 226.35335487 247.328125 233.68994141 C249.055174 236.07623487 250.77813876 238.46542969 252.5 240.85546875 C253.07564697 241.65412354 253.65129395 242.45277832 254.24438477 243.27563477 C255.33392231 244.78747612 256.42299029 246.29965604 257.51147461 247.81225586 C258.26182983 248.85265015 258.26182983 248.85265015 259.02734375 249.9140625 C259.51187012 250.58598633 259.99639648 251.25791016 260.49560547 251.95019531 C262.57928435 254.78930078 264.73457365 257.57247608 266.90063477 260.34912109 C268 262 268 262 268 264 C256.2737562 264.25522258 244.54817611 264.45049518 232.81971741 264.56993389 C227.37311497 264.62726982 221.92841661 264.70498723 216.48291016 264.82983398 C211.22427781 264.94963747 205.96747253 265.0151818 200.70758057 265.04364967 C198.70431755 265.06392658 196.70115121 265.1035277 194.69866943 265.16303062 C179.00966699 265.61054681 179.00966699 265.61054681 174.04382324 261.63092041 C171.9764149 258.82904266 170.46628622 256.14975223 169 253 C168.07311017 251.53595357 167.12925693 250.08224858 166.15625 248.6484375 C165.26723014 247.22620431 164.38192508 245.80164352 163.5 244.375 C162.4643272 242.71825868 161.42782469 241.06203584 160.390625 239.40625 C159.84470703 238.53355469 159.29878906 237.66085937 158.73632812 236.76171875 C155.60439382 231.78021694 152.42564182 226.82870855 149.25 221.875 C148.57662598 220.8238501 147.90325195 219.7727002 147.20947266 218.68969727 C145.83093363 216.53795493 144.45218879 214.38634444 143.07324219 212.23486328 C140.34320677 207.97521075 137.61416706 203.71492282 134.88671875 199.45361328 C133.55494123 197.37416552 132.22162918 195.29569968 130.88671875 193.21826172 C127.55631924 188.02893872 124.26107343 182.82200012 121.0234375 177.57421875 C120.38809082 176.55223389 119.75274414 175.53024902 119.09814453 174.47729492 C117.89374669 172.53705296 116.69890305 170.59083738 115.51513672 168.63793945 C114.97904785 167.77773193 114.44295898 166.91752441 113.890625 166.03125 C113.42688477 165.27392578 112.96314453 164.51660156 112.48535156 163.73632812 C110.73798966 161.69371836 109.62190428 161.35746843 107 161 C93.00515012 187.88970295 85.12044305 216.02988769 78.03125 245.328125 C77.85461319 246.05622879 77.67797638 246.78433258 77.49598694 247.53450012 C76.18940541 253.00644838 75.10541092 258.4729454 74 264 C50.9 264 27.8 264 4 264 C7.19292148 258.25274134 9.7399763 253.73497208 13.6875 248.75 C14.56798903 247.63042903 15.44818916 246.51063081 16.328125 245.390625 C16.77220703 244.82923828 17.21628906 244.26785156 17.67382812 243.68945312 C18.96084174 242.04988498 20.22642286 240.39631177 21.484375 238.734375 C26.57881147 232.00874501 31.87752424 225.50809584 37.3671875 219.1015625 C39.70503651 216.36706908 41.94932248 213.5668698 44.1875 210.75 C49.45685078 204.27190925 55.23440097 198.28050515 60.98828125 192.234375 C64.03010611 189.03702283 67.02310681 185.80103427 69.99047852 182.53466797 C74.03600333 178.08674985 78.10557064 173.81370047 82.7265625 169.953125 C86.62435833 166.60450316 90.33672923 163.05132679 94.07763672 159.52929688 C96.94604182 156.84411765 99.77777372 154.26512936 103 152 C101.65599672 148.23545351 99.9717333 145.36808866 97.5625 142.1875 C93.98231746 137.33906091 90.42126224 132.48091701 86.9375 127.5625 C86.43613525 126.87631592 85.93477051 126.19013184 85.41821289 125.4831543 C84.95922607 124.83000244 84.50023926 124.17685059 84.02734375 123.50390625 C83.61218506 122.92455322 83.19702637 122.3452002 82.76928711 121.74829102 C81.77049941 119.47843424 82.19378534 118.29113204 83 116 C81.68 116 80.36 116 79 116 C77.42285156 114.34545898 77.42285156 114.34545898 75.890625 111.99609375 C75.30909668 111.12186768 74.72756836 110.2476416 74.12841797 109.34692383 C73.50854004 108.38681396 72.88866211 107.4267041 72.25 106.4375 C70.9049417 104.40799473 69.55854443 102.37937635 68.2109375 100.3515625 C67.51709961 99.30000977 66.82326172 98.24845703 66.10839844 97.16503906 C62.77440656 92.16019068 59.32481885 87.23788907 55.875 82.3125 C51.04977039 75.39753556 46.25077532 68.46632726 41.5 61.5 C31.55272638 46.92036447 21.42923536 32.46232384 11.3125 18 C10.74861572 17.19377197 10.18473145 16.38754395 9.60375977 15.55688477 C9.07065186 14.79561279 8.53754395 14.03434082 7.98828125 13.25 C7.48635254 12.53199219 6.98442383 11.81398437 6.46728516 11.07421875 C5.49005639 9.69276524 4.50008724 8.32023563 3.49755859 6.95703125 C0 2.19711286 0 2.19711286 0 0 Z " fill="#000000" transform="translate(154,156)"/>
<path d="M0 0 C0.66 0.33 1.32 0.66 2 1 C-7.57 10.57 -17.14 20.14 -27 30 C-27 27 -27 27 -25.2421875 24.984375 C-24.46101563 24.24703125 -23.67984375 23.5096875 -22.875 22.75 C-20.07630185 20.05172316 -17.3967513 17.38605007 -14.9375 14.375 C-12.19260265 11.07959399 -9.09793129 8.35269443 -5.8359375 5.578125 C-3.7854109 3.81554469 -1.87227771 1.95028928 0 0 Z " fill="#6B9CF3" transform="translate(98,70)"/>
</svg>
