<svg width="300" height="81" viewBox="0 0 300 81" fill="none" xmlns="http://www.w3.org/2000/svg">
<circle cx="44.6023" cy="37.6074" r="35.8956" stroke="#E1C300" stroke-width="3.4236"/>
<path fill-rule="evenodd" clip-rule="evenodd" d="M37.6435 0C55.256 0 70.0427 12.0959 74.1513 28.4335C66.5989 28.9108 60.7337 37.6711 58.6285 42.3272C61.394 39.3446 68.9096 31.5111 75.0332 33.2526C75.2005 34.693 75.2869 36.1582 75.2869 37.6435C75.2869 44.9479 73.2062 51.7663 69.6055 57.5386C66.9278 55.7156 63.7056 53.9389 59.9986 54.0343C51.0276 54.2651 45.107 62.9525 43.2681 67.2673C45.8282 63.9808 52.7584 58.1464 59.9986 61.1014C61.8613 62.0515 63.5022 62.8639 64.952 63.5517C58.0926 70.7794 48.3946 75.2869 37.6435 75.2869C16.8536 75.2869 0 58.4334 0 37.6435C8.40221e-06 16.8536 16.8536 8.4044e-06 37.6435 0ZM54.019 8.07667C53.2137 9.17039 50.7378 11.668 47.2763 12.9083C42.9494 14.4588 34.5484 16.5864 27.7337 24.2665C20.9189 31.9466 20.4862 41.7179 20.991 49.4341C21.4958 57.1503 24.9573 62.8834 27.7337 65.0468C30.5101 67.2102 36.6036 70.5633 47.9254 59.3137C59.2472 48.0639 54.0912 33.7857 45.8342 37.9682C48.5265 35.0596 53.3121 28.1246 50.918 23.6536C47.9252 18.0648 41.3269 21.0213 32.0602 31.9826C34.6804 29.5909 40.5121 25.8313 42.8774 29.9273C45.8341 35.0474 44.5746 37.7157 33.8993 48.2083C36.5676 45.9487 42.6034 42.4609 45.4014 46.5858C48.8989 51.7419 47.1682 59.8185 42.8774 61.6214C38.5867 63.4242 31.7358 62.2344 28.9234 54.41C26.1109 46.5857 24.3083 36.3094 27.7337 27.2591C31.1591 18.2089 43.8509 20.1198 48.9349 14.6393C53.0022 10.2548 54.019 8.43724 54.019 8.07667Z" fill="#E1C300"/>
<mask id="mask0_75_1345" style="mask-type:alpha" maskUnits="userSpaceOnUse" x="48" y="0" width="76" height="76">
<circle cx="85.8158" cy="37.6435" r="37.6435" fill="#D89B00"/>
</mask>
<g mask="url(#mask0_75_1345)">
<path fill-rule="evenodd" clip-rule="evenodd" d="M92.9913 11.9919C95.6114 11.7996 100.902 12.85 101.104 18.5903C101.217 21.8088 101.23 32.3719 101.205 43.4701C101.467 43.5934 101.734 43.7173 102.006 43.8417C103.707 44.6205 106.465 43.4691 107.306 42.5797L110.912 47.6637C109.914 48.8656 106.969 50.7285 103.051 50.7285C102.525 50.7285 101.896 50.5875 101.184 50.3308C101.162 56.703 101.131 62.7862 101.104 67.2672H93.3879V45.795C90.0598 43.4753 86.4566 40.7081 83.2418 38.3509C83.1355 41.5231 83.0756 45.1762 83.0756 49.383C83.0756 55.2242 81.7415 58.9741 78.6767 63.1207C75.6118 67.2672 76.0445 69.2864 59.9991 61.1015C52.7589 58.1464 45.8287 63.9807 43.2687 67.2672C45.1076 62.9524 51.0282 54.2651 59.9991 54.0343C71.2129 53.7458 77.9916 70.5845 78.6767 54.0343C78.9672 47.0163 78.9919 40.8542 79.2676 35.5424C78.0026 34.6995 76.8826 34.0245 75.9724 33.6015C69.7007 30.687 61.5376 39.1903 58.629 42.3273C60.9006 37.3033 67.5495 27.5007 75.9724 28.4814C77.4695 28.6557 78.7101 28.9276 79.7874 29.2889C80.3298 24.9789 81.2838 21.4142 83.0756 18.5903C86.6813 12.9077 91.1884 11.8236 92.9913 11.9919ZM90.2149 15.4894C88.9529 15.4894 87.2925 16.2827 85.9602 18.5903C85.1103 20.0623 84.171 23.4709 83.6022 31.3054C86.1754 33.2119 88.416 35.9202 93.3879 39.1681V18.5903C93.2557 17.5567 92.436 15.4894 90.2149 15.4894Z" fill="#D89B00"/>
<path d="M54.0192 8.07681C54.0192 8.43737 53.0024 10.2547 48.9351 14.6392C43.8511 20.1198 31.1591 18.2088 27.7337 27.2591C24.3083 36.3094 26.1111 46.5857 28.9235 54.41C31.736 62.2344 38.5868 63.4242 42.8776 61.6214C47.1683 59.8186 48.8991 51.7418 45.4016 46.5857C42.6035 42.4608 36.5676 45.9487 33.8994 48.2082C44.5747 37.7157 45.8342 35.0474 42.8776 29.9273C40.5122 25.8313 34.6806 29.5908 32.0605 31.9826C41.3271 21.0213 47.9255 18.0646 50.9183 23.6534C53.3124 28.1245 48.5265 35.0594 45.8342 37.968C54.0913 33.7855 59.2474 48.064 47.9255 59.3138C36.6037 70.5635 30.5101 67.2102 27.7337 65.0468C24.9573 62.8834 21.4959 57.1503 20.9911 49.4342C20.4863 41.718 20.9189 31.9465 27.7337 24.2664C34.5485 16.5863 42.9498 14.4589 47.2766 12.9084C50.738 11.6681 53.214 9.17053 54.0192 8.07681Z" fill="#D89B00"/>
</g>
<path d="M122.84 44.5876C123.666 43.1985 124.758 42.1236 126.114 41.363C127.503 40.5692 129.14 40.1723 131.025 40.1723V46.0263H129.587C127.371 46.0263 125.684 46.5885 124.526 47.713C123.402 48.8375 122.84 50.7889 122.84 53.567V67.9539H117.184V40.6188H122.84V44.5876Z" fill="#D89B00"/>
<path d="M146.791 45.2325V60.3636C146.791 61.3888 147.022 62.133 147.485 62.596C147.981 63.026 148.808 63.241 149.966 63.241H153.439V67.9539H148.974C146.427 67.9539 144.476 67.3586 143.12 66.1679C141.764 64.9773 141.086 63.0425 141.086 60.3636V45.2325H137.861V40.6188H141.086V33.8222H146.791V40.6188H153.439V45.2325H146.791Z" fill="#D89B00"/>
<path d="M160.735 54.1623C160.735 51.4172 161.297 48.9864 162.421 46.8697C163.579 44.753 165.133 43.1158 167.085 41.9583C169.069 40.7676 171.252 40.1723 173.633 40.1723C175.783 40.1723 177.652 40.6023 179.239 41.4622C180.86 42.289 182.15 43.3308 183.109 44.5876V40.6188H188.814V67.9539H183.109V63.8859C182.15 65.1757 180.843 66.2506 179.19 67.1105C177.536 67.9704 175.651 68.4004 173.534 68.4004C171.186 68.4004 169.036 67.8051 167.085 66.6144C165.133 65.3907 163.579 63.704 162.421 61.5542C161.297 59.3714 160.735 56.9074 160.735 54.1623ZM183.109 54.2615C183.109 52.3764 182.712 50.7392 181.918 49.3502C181.157 47.9611 180.149 46.9027 178.892 46.1751C177.635 45.4475 176.279 45.0837 174.824 45.0837C173.369 45.0837 172.013 45.4475 170.756 46.1751C169.499 46.8697 168.474 47.9115 167.68 49.3006C166.919 50.6566 166.539 52.2772 166.539 54.1623C166.539 56.0475 166.919 57.7012 167.68 59.1233C168.474 60.5455 169.499 61.6369 170.756 62.3976C172.046 63.1252 173.402 63.489 174.824 63.489C176.279 63.489 177.635 63.1252 178.892 62.3976C180.149 61.67 181.157 60.6116 181.918 59.2225C182.712 57.8004 183.109 56.1467 183.109 54.2615Z" fill="#D89B00"/>
<path d="M205.867 44.6372C206.826 43.3804 208.132 42.3221 209.786 41.4622C211.439 40.6023 213.308 40.1723 215.392 40.1723C217.773 40.1723 219.939 40.7676 221.891 41.9583C223.875 43.1158 225.429 44.753 226.554 46.8697C227.678 48.9864 228.241 51.4172 228.241 54.1623C228.241 56.9074 227.678 59.3714 226.554 61.5542C225.429 63.704 223.875 65.3907 221.891 66.6144C219.939 67.8051 217.773 68.4004 215.392 68.4004C213.308 68.4004 211.456 67.987 209.835 67.1601C208.215 66.3002 206.892 65.2419 205.867 63.9851V80.9517H200.211V40.6188H205.867V44.6372ZM222.486 54.1623C222.486 52.2772 222.089 50.6566 221.295 49.3006C220.535 47.9115 219.509 46.8697 218.219 46.1751C216.963 45.4475 215.607 45.0837 214.151 45.0837C212.729 45.0837 211.373 45.4475 210.083 46.1751C208.827 46.9027 207.801 47.9611 207.008 49.3502C206.247 50.7392 205.867 52.3764 205.867 54.2615C205.867 56.1467 206.247 57.8004 207.008 59.2225C207.801 60.6116 208.827 61.67 210.083 62.3976C211.373 63.1252 212.729 63.489 214.151 63.489C215.607 63.489 216.963 63.1252 218.219 62.3976C219.509 61.6369 220.535 60.5455 221.295 59.1233C222.089 57.7012 222.486 56.0475 222.486 54.1623Z" fill="#D89B00"/>
<path d="M235.917 54.1623C235.917 51.4172 236.479 48.9864 237.604 46.8697C238.761 44.753 240.316 43.1158 242.267 41.9583C244.251 40.7676 246.434 40.1723 248.816 40.1723C250.965 40.1723 252.834 40.6023 254.422 41.4622C256.042 42.289 257.332 43.3308 258.291 44.5876V40.6188H263.996V67.9539H258.291V63.8859C257.332 65.1757 256.026 66.2506 254.372 67.1105C252.718 67.9704 250.833 68.4004 248.716 68.4004C246.368 68.4004 244.218 67.8051 242.267 66.6144C240.316 65.3907 238.761 63.704 237.604 61.5542C236.479 59.3714 235.917 56.9074 235.917 54.1623ZM258.291 54.2615C258.291 52.3764 257.894 50.7392 257.1 49.3502C256.34 47.9611 255.331 46.9027 254.074 46.1751C252.817 45.4475 251.461 45.0837 250.006 45.0837C248.551 45.0837 247.195 45.4475 245.938 46.1751C244.681 46.8697 243.656 47.9115 242.862 49.3006C242.102 50.6566 241.721 52.2772 241.721 54.1623C241.721 56.0475 242.102 57.7012 242.862 59.1233C243.656 60.5455 244.681 61.6369 245.938 62.3976C247.228 63.1252 248.584 63.489 250.006 63.489C251.461 63.489 252.817 63.1252 254.074 62.3976C255.331 61.67 256.34 60.6116 257.1 59.2225C257.894 57.8004 258.291 56.1467 258.291 54.2615Z" fill="#D89B00"/>
<path d="M300 40.6188L283.232 80.8029H277.378L282.934 67.5074L272.169 40.6188H278.469L286.159 61.455L294.146 40.6188H300Z" fill="#D89B00"/>
</svg>
