<svg width="309" height="73" viewBox="0 0 309 73" fill="none" xmlns="http://www.w3.org/2000/svg">
<path d="M32 34C40.4869 34 48.6258 37.3719 54.627 43.373C60.6281 49.3742 64 57.5131 64 66H0C1.28149e-06 57.5131 3.37188 49.3742 9.37305 43.373C15.3742 37.3719 23.5131 34 32 34ZM32 0C40.8366 0 48 7.16344 48 16C48 24.8366 40.8366 32 32 32C23.1634 32 16 24.8366 16 16C16 7.16344 23.1634 0 32 0Z" fill="white"/>
<path d="M228 34C235.194 34 242.137 36.4235 247.74 40.8164C241.433 42.195 235.595 45.3527 230.958 49.9893C226.511 54.4361 223.425 59.9885 221.964 66H196C196 57.5131 199.372 49.3742 205.373 43.373C211.374 37.3719 219.513 34 228 34ZM277 34C285.487 34 293.626 37.3719 299.627 43.373C305.628 49.3742 309 57.5131 309 66H288.036C286.575 59.9885 283.489 54.4361 279.042 49.9893C273.402 44.3492 265.984 40.8971 258.105 40.1748C258.428 39.9392 258.754 39.7103 259.084 39.4873C261.776 38.8437 264.225 37.5787 266.273 35.8516C269.685 34.6375 273.31 34 277 34ZM228 0C234.684 0 240.409 4.09901 242.803 9.91992C239.532 13.0996 237.5 17.5468 237.5 22.4688C237.5 24.4489 237.829 26.3521 238.436 28.127C235.634 30.5401 231.988 32 228 32C219.163 32 212 24.8366 212 16C212 7.16344 219.163 0 228 0ZM277 0C285.837 0 293 7.16344 293 16C293 24.8366 285.837 32 277 32C274.681 32 272.478 31.5057 270.488 30.6182C271.772 28.1841 272.5 25.4117 272.5 22.4688C272.5 15.9354 268.92 10.2385 263.614 7.23242C266.473 2.87658 271.401 0 277 0Z" fill="white"/>
<mask id="path-3-inside-1_510_1279" fill="white">
<path d="M255 41C263.487 41 271.626 44.3719 277.627 50.373C283.628 56.3742 287 64.5131 287 73H223C223 64.5131 226.372 56.3742 232.373 50.373C238.374 44.3719 246.513 41 255 41ZM255 7C263.837 7 271 14.1634 271 23C271 31.8366 263.837 39 255 39C246.163 39 239 31.8366 239 23C239 14.1634 246.163 7 255 7Z"/>
</mask>
<path d="M255 41C263.487 41 271.626 44.3719 277.627 50.373C283.628 56.3742 287 64.5131 287 73H223C223 64.5131 226.372 56.3742 232.373 50.373C238.374 44.3719 246.513 41 255 41ZM255 7C263.837 7 271 14.1634 271 23C271 31.8366 263.837 39 255 39C246.163 39 239 31.8366 239 23C239 14.1634 246.163 7 255 7Z" fill="white"/>
<path d="M255 41V40V40V41ZM277.627 50.373L278.334 49.6659V49.6659L277.627 50.373ZM287 73V74H288V73H287ZM223 73H222L222 74H223V73ZM232.373 50.373L231.666 49.6659V49.6659L232.373 50.373ZM271 23H272H271ZM239 23H238H239ZM255 41V42C263.222 42 271.106 45.2665 276.92 51.0802L277.627 50.373L278.334 49.6659C272.145 43.4773 263.752 40 255 40V41ZM277.627 50.373L276.92 51.0802C282.734 56.8938 286 64.7783 286 73H287H288C288 64.2478 284.523 55.8546 278.334 49.6659L277.627 50.373ZM287 73V72H223V73V74H287V73ZM223 73H224C224 64.7783 227.266 56.8938 233.08 51.0802L232.373 50.373L231.666 49.6659C225.477 55.8546 222 64.2478 222 73H223ZM232.373 50.373L233.08 51.0802C238.894 45.2665 246.778 42 255 42V41V40C246.248 40 237.855 43.4773 231.666 49.6659L232.373 50.373ZM255 7V8C263.284 8 270 14.7157 270 23H271H272C272 13.6112 264.389 6 255 6V7ZM271 23H270C270 31.2843 263.284 38 255 38V39V40C264.389 40 272 32.3888 272 23H271ZM255 39V38C246.716 38 240 31.2843 240 23H239H238C238 32.3888 245.611 40 255 40V39ZM239 23H240C240 14.7157 246.716 8 255 8V7V6C245.611 6 238 13.6112 238 23H239Z" fill="#1A1A1A" mask="url(#path-3-inside-1_510_1279)"/>
</svg>
