<svg width="248" height="66" viewBox="0 0 248 66" fill="none" xmlns="http://www.w3.org/2000/svg">
<path d="M32 34C40.4869 34 48.6258 37.3719 54.627 43.373C60.6281 49.3742 64 57.5131 64 66H0C1.28149e-06 57.5131 3.37188 49.3742 9.37305 43.373C15.3742 37.3719 23.5131 34 32 34ZM32 0C40.8366 0 48 7.16344 48 16C48 24.8366 40.8366 32 32 32C23.1634 32 16 24.8366 16 16C16 7.16344 23.1634 0 32 0Z" fill="black"/>
<path d="M174 43L154 31.453V54.547L174 43ZM74.0005 43V45H156V43V41H74.0005V43Z" fill="black"/>
<path d="M74 23L94 11.453V34.547L74 23ZM174 23V25H92V23V21H174V23Z" fill="black"/>
<path d="M216 34C224.487 34 232.626 37.3719 238.627 43.373C244.629 49.3742 248 57.5131 248 66H184C184 57.5131 187.372 49.3742 193.374 43.373C199.375 37.3719 207.514 34 216 34ZM216 0C224.837 0 232 7.16344 232 16C232 24.8366 224.837 32 216 32C207.164 32 200 24.8366 200 16C200 7.16344 207.164 0 216 0Z" fill="black"/>
</svg>
