<svg width="120" height="120" viewBox="0 0 120 120" fill="none" xmlns="http://www.w3.org/2000/svg">
<path fill-rule="evenodd" clip-rule="evenodd" d="M47.8936 120H0V72.1064H47.8936V120ZM12.7716 107.228H35.122V84.8781H12.7716V107.228Z" fill="white"/>
<path d="M107.228 120H81.6852V107.228H107.228V120Z" fill="white"/>
<path d="M120 107.228H107.228V81.6852H120V107.228Z" fill="white"/>
<path d="M68.9135 94.4568H56.1419V81.6852H68.9135V94.4568Z" fill="white"/>
<path d="M94.4568 94.4568H81.6852V81.6852H94.4568V94.4568Z" fill="white"/>
<path d="M81.6852 81.6852H68.9135V68.9135H81.6852V81.6852Z" fill="white"/>
<path d="M68.9135 68.9135H56.1419V56.1419H68.9135V68.9135Z" fill="white"/>
<path d="M96.0532 68.9135H83.2816V56.1419H96.0532V68.9135Z" fill="white"/>
<path fill-rule="evenodd" clip-rule="evenodd" d="M47.8936 47.8936H0V0H47.8936V47.8936ZM12.7716 35.122H35.122V12.7716H12.7716V35.122Z" fill="white"/>
<path fill-rule="evenodd" clip-rule="evenodd" d="M120 47.8936H72.1064V0H120V47.8936ZM84.8781 35.122H107.228V12.7716H84.8781V35.122Z" fill="white"/>
</svg>
