<svg width="160" height="160" viewBox="0 0 160 160" fill="none" xmlns="http://www.w3.org/2000/svg">
<path fill-rule="evenodd" clip-rule="evenodd" d="M67.8936 140H20V92.1064H67.8936V140ZM32.7716 127.228H55.122V104.878H32.7716V127.228Z" fill="#252525"/>
<path d="M127.228 140H101.685V127.228H127.228V140Z" fill="#252525"/>
<path d="M140 127.228H127.228V101.685H140V127.228Z" fill="#252525"/>
<path d="M88.9135 114.457H76.1419V101.685H88.9135V114.457Z" fill="#252525"/>
<path d="M114.457 114.457H101.685V101.685H114.457V114.457Z" fill="#252525"/>
<path d="M101.685 101.685H88.9135V88.9135H101.685V101.685Z" fill="#252525"/>
<path d="M88.9135 88.9135H76.1419V76.1419H88.9135V88.9135Z" fill="#252525"/>
<path d="M116.053 88.9135H103.282V76.1419H116.053V88.9135Z" fill="#252525"/>
<path fill-rule="evenodd" clip-rule="evenodd" d="M67.8936 67.8936H20V20H67.8936V67.8936ZM32.7716 55.122H55.122V32.7716H32.7716V55.122Z" fill="#252525"/>
<path fill-rule="evenodd" clip-rule="evenodd" d="M140 67.8936H92.1064V20H140V67.8936ZM104.878 55.122H127.228V32.7716H104.878V55.122Z" fill="#252525"/>
<path d="M5.65121 117.82C8.77229 117.82 11.3024 120.352 11.3024 123.476V148.689H36.4974C39.6185 148.689 42.1486 151.221 42.1486 154.345C42.1486 157.468 39.6185 160 36.4974 160H0V123.476C-8.98236e-07 120.352 2.53013 117.82 5.65121 117.82Z" fill="#252525"/>
<path d="M154.349 117.82C157.47 117.82 160 120.352 160 123.476V160H123.503C120.382 160 117.851 157.468 117.851 154.345C117.851 151.221 120.381 148.689 123.503 148.689H148.698V123.476C148.698 120.352 151.228 117.82 154.349 117.82Z" fill="#252525"/>
<path d="M36.4974 0C39.6185 -8.98897e-07 42.1486 2.532 42.1486 5.65538C42.1486 8.77875 39.6185 11.3108 36.4974 11.3108H11.3024V36.5243C11.3024 39.6477 8.77229 42.1797 5.65121 42.1797C2.53013 42.1797 -8.98236e-07 39.6477 0 36.5243V0H36.4974Z" fill="#252525"/>
<path d="M160 36.5243C160 39.6477 157.47 42.1797 154.349 42.1797C151.228 42.1797 148.698 39.6477 148.698 36.5243V11.3108H123.503C120.381 11.3108 117.851 8.77875 117.851 5.65538C117.851 2.532 120.382 -9.01816e-07 123.503 0H160V36.5243Z" fill="#252525"/>
</svg>
