<svg width="140" height="140" viewBox="0 0 140 140" fill="none" xmlns="http://www.w3.org/2000/svg">
<mask id="path-1-inside-1_544_993" fill="white">
<path d="M65.3188 0.184439C65.9168 0.144267 66.9389 0.0889478 67.5909 0.0612883C68.2429 0.0329702 69.2064 0.00596925 69.7312 0.000700769C70.2561 -0.00456771 71.3526 0.0204576 72.168 0.0560198C72.9826 0.0909235 74.1239 0.150852 74.7034 0.189049C75.283 0.226587 76.068 0.287833 76.4487 0.324054C76.8293 0.360933 77.6585 0.451156 78.2927 0.524256C78.9262 0.597356 80.0082 0.744215 80.6964 0.850902C81.3846 0.95693 82.3626 1.12025 82.8697 1.21377C83.3768 1.30794 84.2507 1.48378 84.8125 1.60495C85.3743 1.72547 86.3219 1.9474 86.9199 2.0969C87.5179 2.24639 88.4656 2.49796 89.0273 2.65601C89.5891 2.81407 90.5816 3.11174 91.2336 3.31721C91.8855 3.52268 92.9524 3.88357 93.6044 4.11868C94.2564 4.35444 95.2936 4.74826 95.9094 4.99456C96.5252 5.2402 97.5176 5.6551 98.1156 5.91589C98.7136 6.17733 99.9728 6.7707 100.915 7.23498C101.856 7.69927 103.042 8.30712 103.549 8.58503C104.056 8.8636 105.123 9.48001 105.92 9.95549C106.717 10.431 107.991 11.2357 108.752 11.7441C109.512 12.2526 110.535 12.9612 111.024 13.3188C111.512 13.6764 112.328 14.2888 112.835 14.68C113.342 15.0705 114.157 15.7238 114.646 16.1315C115.134 16.5385 115.92 17.2135 116.391 17.631C116.862 18.0492 117.763 18.881 118.394 19.4802C119.025 20.0795 120.045 21.1036 120.661 21.7556C121.278 22.4075 122.172 23.3855 122.649 23.9288C123.125 24.4721 123.866 25.346 124.294 25.8716C124.722 26.3971 125.55 27.4633 126.132 28.2417C126.715 29.0201 127.637 30.3241 128.182 31.1394C128.727 31.9547 129.545 33.2441 130 34.0048C130.456 34.7654 131.085 35.8547 131.398 36.425C131.71 36.9953 132.248 38.0253 132.592 38.7135C132.936 39.4017 133.443 40.4613 133.719 41.0678C133.994 41.6744 134.44 42.7044 134.71 43.3563C134.98 44.0083 135.419 45.1344 135.684 45.8589C135.95 46.5833 136.351 47.7391 136.574 48.4272C136.798 49.1154 137.129 50.1968 137.308 50.831C137.488 51.4645 137.781 52.5762 137.959 53.3006C138.137 54.025 138.4 55.1953 138.545 55.9019C138.689 56.6085 138.911 57.8229 139.04 58.602C139.169 59.3811 139.347 60.6257 139.438 61.3679C139.528 62.1108 139.646 63.2218 139.702 63.8375C139.756 64.4533 139.846 65.802 139.901 66.834C139.955 67.866 140 69.2891 140 69.9951C140 70.7011 139.956 72.1242 139.902 73.1562C139.848 74.1881 139.773 75.3887 139.736 75.8233C139.698 76.258 139.607 77.1622 139.534 77.8319C139.461 78.5017 139.312 79.6575 139.203 80.4003C139.094 81.1432 138.901 82.299 138.775 82.9687C138.648 83.6385 138.456 84.5874 138.347 85.0761C138.238 85.5648 138.016 86.4986 137.852 87.1506C137.689 87.8025 137.407 88.8543 137.225 89.4885C137.044 90.122 136.663 91.3377 136.379 92.1885C136.095 93.0394 135.663 94.2545 135.42 94.8886C135.177 95.5222 134.792 96.4856 134.566 97.029C134.34 97.5723 133.883 98.6095 133.55 99.3339C133.217 100.058 132.647 101.229 132.282 101.935C131.917 102.641 131.361 103.678 131.045 104.24C130.729 104.802 130.166 105.765 129.793 106.381C129.42 106.996 128.667 108.167 128.121 108.982C127.573 109.796 126.649 111.1 126.067 111.879C125.484 112.659 124.641 113.74 124.195 114.283C123.749 114.827 122.992 115.716 122.514 116.259C122.036 116.802 121.146 117.765 120.538 118.399C119.929 119.033 118.94 120.023 118.339 120.599C117.738 121.174 116.743 122.088 116.127 122.63C115.512 123.172 114.445 124.067 113.757 124.621C113.068 125.174 111.972 126.019 111.32 126.498C110.668 126.977 109.498 127.793 108.719 128.31C107.939 128.828 106.71 129.606 105.986 130.04C105.261 130.474 104.194 131.088 103.615 131.406C103.035 131.725 101.835 132.344 100.947 132.784C100.06 133.223 98.8749 133.785 98.3132 134.033C97.7514 134.282 96.6997 134.722 95.9753 135.011C95.2508 135.301 94.1398 135.724 93.5056 135.952C92.8721 136.18 91.8197 136.533 91.1677 136.739C90.5157 136.944 89.5232 137.242 88.9615 137.401C88.3997 137.559 87.452 137.81 86.8541 137.956C86.2561 138.104 85.2188 138.341 84.5491 138.483C83.8793 138.626 82.7235 138.847 81.9806 138.975C81.2378 139.102 80.082 139.28 79.4122 139.37C78.7425 139.461 77.5867 139.594 76.8438 139.666C76.1009 139.739 74.7752 139.843 73.8967 139.899C72.9635 139.958 71.3283 140 69.9617 140C68.6123 140 66.9764 139.959 66.0926 139.901C65.2503 139.847 64.0577 139.757 63.4419 139.701C62.8261 139.644 61.7448 139.525 61.0381 139.436C60.3315 139.346 59.2053 139.182 58.5356 139.071C57.8658 138.96 56.6652 138.737 55.8683 138.574C55.0715 138.412 53.8419 138.136 53.1353 137.96C52.4286 137.785 51.3176 137.488 50.6656 137.301C50.0137 137.114 48.8875 136.767 48.1631 136.529C47.4387 136.292 46.4607 135.956 45.9898 135.783C45.5189 135.611 44.7188 135.306 44.2117 135.106C43.7046 134.907 42.8451 134.552 42.3018 134.317C41.7585 134.083 40.7654 133.634 40.0956 133.318C39.4258 133.002 38.4479 132.519 37.9223 132.245C37.3968 131.971 36.4787 131.474 35.8807 131.142C35.2828 130.809 34.4088 130.305 33.938 130.021C33.4671 129.738 32.6669 129.24 32.1598 128.916C31.6527 128.59 30.8084 128.027 30.2829 127.663C29.7574 127.299 28.9282 126.706 28.4389 126.345C27.9496 125.984 27.0605 125.299 26.4632 124.823C25.8659 124.347 24.9472 123.59 24.4216 123.14C23.8961 122.691 23.4338 122.292 23.3943 122.254C23.3541 122.217 23.0136 121.905 22.6369 121.561C22.2602 121.217 21.3408 120.328 20.5947 119.585C19.8479 118.842 18.8712 117.834 18.4247 117.346C17.9775 116.857 17.2564 116.042 16.8217 115.535C16.3864 115.027 15.6179 114.094 15.1134 113.46C14.6089 112.826 13.8094 111.774 13.3359 111.122C12.8624 110.47 12.0557 109.3 11.542 108.521C11.029 107.742 10.3579 106.69 10.051 106.183C9.74409 105.676 9.1876 104.712 8.81353 104.043C8.44012 103.373 7.78616 102.128 7.36073 101.277C6.93463 100.426 6.33467 99.166 6.02778 98.4778C5.72023 97.7896 5.21642 96.5897 4.90755 95.8106C4.59934 95.0316 4.15481 93.8461 3.9197 93.1764C3.68459 92.5066 3.32698 91.4246 3.12546 90.7726C2.92394 90.1207 2.59466 88.98 2.39379 88.2372C2.19293 87.4943 1.86759 86.1607 1.67068 85.2737C1.47377 84.3866 1.20837 83.0675 1.0806 82.3431C0.95284 81.6187 0.788856 80.6111 0.715755 80.104C0.643312 79.5969 0.52477 78.663 0.452327 78.0295C0.379226 77.3953 0.276489 76.3284 0.223145 75.6587C0.169142 74.9889 0.0907722 73.6554 0.0486237 72.6952C0.00252381 71.654 -0.0126233 70.113 0.0110852 68.8755C0.0334766 67.7342 0.0822108 66.3269 0.119749 65.7474C0.157946 65.1678 0.23434 64.1899 0.28966 63.5741C0.345639 62.9584 0.465498 61.8619 0.556381 61.1375C0.647264 60.413 0.825736 59.198 0.952182 58.4374C1.07929 57.6767 1.30254 56.4768 1.44874 55.7702C1.59429 55.0636 1.84586 53.9526 2.00655 53.3006C2.1679 52.6486 2.45899 51.5521 2.65393 50.8639C2.8482 50.1757 3.20581 49.0048 3.4475 48.2626C3.68986 47.5204 4.12583 46.2757 4.41626 45.4967C4.70735 44.7176 5.20457 43.4729 5.52134 42.7307C5.83811 41.9885 6.32479 40.892 6.60337 40.294C6.88194 39.6961 7.37851 38.6885 7.70713 38.0549C8.0351 37.4207 8.52639 36.502 8.79838 36.0134C9.07103 35.5247 9.60447 34.6054 9.98381 33.9719C10.3631 33.3377 11.0145 32.3004 11.4307 31.6669C11.8476 31.0327 12.5476 30.0106 12.9869 29.3949C13.4262 28.7791 14.1532 27.8011 14.603 27.2216C15.0522 26.6421 15.7667 25.753 16.1902 25.2459C16.6136 24.7388 17.3414 23.8946 17.807 23.369C18.2726 22.8435 19.4843 21.5824 20.5005 20.5655C21.516 19.5494 22.8365 18.285 23.4338 17.7568C24.0311 17.2286 24.9202 16.4654 25.4095 16.0603C25.8988 15.656 26.7135 15.0047 27.2206 14.6141C27.7277 14.223 28.5423 13.6112 29.0316 13.2549C29.5209 12.8979 30.5286 12.2018 31.2708 11.7066C32.013 11.212 33.2135 10.4514 33.938 10.0174C34.6624 9.58275 35.7293 8.96699 36.3088 8.64891C36.8884 8.33082 38.1475 7.68214 39.1077 7.20666C40.0679 6.73118 41.5938 6.02587 42.4994 5.63929C43.4049 5.25272 44.6944 4.73114 45.3642 4.48023C46.0339 4.22997 47.2641 3.80125 48.0972 3.52795C48.9303 3.25465 50.1895 2.86741 50.8961 2.66787C51.6028 2.46767 52.4767 2.22927 52.8389 2.13773C53.2011 2.04619 54.1054 1.83808 54.8476 1.67476C55.5898 1.51144 56.7752 1.27304 57.4818 1.14594C58.1885 1.01818 59.3884 0.825876 60.1491 0.71919C60.9097 0.611844 62.1399 0.464327 62.8821 0.390568C63.6243 0.31681 64.7208 0.223953 65.3188 0.184439Z"/>
</mask>
<path d="M65.3188 0.184439C65.9168 0.144267 66.9389 0.0889478 67.5909 0.0612883C68.2429 0.0329702 69.2064 0.00596925 69.7312 0.000700769C70.2561 -0.00456771 71.3526 0.0204576 72.168 0.0560198C72.9826 0.0909235 74.1239 0.150852 74.7034 0.189049C75.283 0.226587 76.068 0.287833 76.4487 0.324054C76.8293 0.360933 77.6585 0.451156 78.2927 0.524256C78.9262 0.597356 80.0082 0.744215 80.6964 0.850902C81.3846 0.95693 82.3626 1.12025 82.8697 1.21377C83.3768 1.30794 84.2507 1.48378 84.8125 1.60495C85.3743 1.72547 86.3219 1.9474 86.9199 2.0969C87.5179 2.24639 88.4656 2.49796 89.0273 2.65601C89.5891 2.81407 90.5816 3.11174 91.2336 3.31721C91.8855 3.52268 92.9524 3.88357 93.6044 4.11868C94.2564 4.35444 95.2936 4.74826 95.9094 4.99456C96.5252 5.2402 97.5176 5.6551 98.1156 5.91589C98.7136 6.17733 99.9728 6.7707 100.915 7.23498C101.856 7.69927 103.042 8.30712 103.549 8.58503C104.056 8.8636 105.123 9.48001 105.92 9.95549C106.717 10.431 107.991 11.2357 108.752 11.7441C109.512 12.2526 110.535 12.9612 111.024 13.3188C111.512 13.6764 112.328 14.2888 112.835 14.68C113.342 15.0705 114.157 15.7238 114.646 16.1315C115.134 16.5385 115.92 17.2135 116.391 17.631C116.862 18.0492 117.763 18.881 118.394 19.4802C119.025 20.0795 120.045 21.1036 120.661 21.7556C121.278 22.4075 122.172 23.3855 122.649 23.9288C123.125 24.4721 123.866 25.346 124.294 25.8716C124.722 26.3971 125.55 27.4633 126.132 28.2417C126.715 29.0201 127.637 30.3241 128.182 31.1394C128.727 31.9547 129.545 33.2441 130 34.0048C130.456 34.7654 131.085 35.8547 131.398 36.425C131.71 36.9953 132.248 38.0253 132.592 38.7135C132.936 39.4017 133.443 40.4613 133.719 41.0678C133.994 41.6744 134.44 42.7044 134.71 43.3563C134.98 44.0083 135.419 45.1344 135.684 45.8589C135.95 46.5833 136.351 47.7391 136.574 48.4272C136.798 49.1154 137.129 50.1968 137.308 50.831C137.488 51.4645 137.781 52.5762 137.959 53.3006C138.137 54.025 138.4 55.1953 138.545 55.9019C138.689 56.6085 138.911 57.8229 139.04 58.602C139.169 59.3811 139.347 60.6257 139.438 61.3679C139.528 62.1108 139.646 63.2218 139.702 63.8375C139.756 64.4533 139.846 65.802 139.901 66.834C139.955 67.866 140 69.2891 140 69.9951C140 70.7011 139.956 72.1242 139.902 73.1562C139.848 74.1881 139.773 75.3887 139.736 75.8233C139.698 76.258 139.607 77.1622 139.534 77.8319C139.461 78.5017 139.312 79.6575 139.203 80.4003C139.094 81.1432 138.901 82.299 138.775 82.9687C138.648 83.6385 138.456 84.5874 138.347 85.0761C138.238 85.5648 138.016 86.4986 137.852 87.1506C137.689 87.8025 137.407 88.8543 137.225 89.4885C137.044 90.122 136.663 91.3377 136.379 92.1885C136.095 93.0394 135.663 94.2545 135.42 94.8886C135.177 95.5222 134.792 96.4856 134.566 97.029C134.34 97.5723 133.883 98.6095 133.55 99.3339C133.217 100.058 132.647 101.229 132.282 101.935C131.917 102.641 131.361 103.678 131.045 104.24C130.729 104.802 130.166 105.765 129.793 106.381C129.42 106.996 128.667 108.167 128.121 108.982C127.573 109.796 126.649 111.1 126.067 111.879C125.484 112.659 124.641 113.74 124.195 114.283C123.749 114.827 122.992 115.716 122.514 116.259C122.036 116.802 121.146 117.765 120.538 118.399C119.929 119.033 118.94 120.023 118.339 120.599C117.738 121.174 116.743 122.088 116.127 122.63C115.512 123.172 114.445 124.067 113.757 124.621C113.068 125.174 111.972 126.019 111.32 126.498C110.668 126.977 109.498 127.793 108.719 128.31C107.939 128.828 106.71 129.606 105.986 130.04C105.261 130.474 104.194 131.088 103.615 131.406C103.035 131.725 101.835 132.344 100.947 132.784C100.06 133.223 98.8749 133.785 98.3132 134.033C97.7514 134.282 96.6997 134.722 95.9753 135.011C95.2508 135.301 94.1398 135.724 93.5056 135.952C92.8721 136.18 91.8197 136.533 91.1677 136.739C90.5157 136.944 89.5232 137.242 88.9615 137.401C88.3997 137.559 87.452 137.81 86.8541 137.956C86.2561 138.104 85.2188 138.341 84.5491 138.483C83.8793 138.626 82.7235 138.847 81.9806 138.975C81.2378 139.102 80.082 139.28 79.4122 139.37C78.7425 139.461 77.5867 139.594 76.8438 139.666C76.1009 139.739 74.7752 139.843 73.8967 139.899C72.9635 139.958 71.3283 140 69.9617 140C68.6123 140 66.9764 139.959 66.0926 139.901C65.2503 139.847 64.0577 139.757 63.4419 139.701C62.8261 139.644 61.7448 139.525 61.0381 139.436C60.3315 139.346 59.2053 139.182 58.5356 139.071C57.8658 138.96 56.6652 138.737 55.8683 138.574C55.0715 138.412 53.8419 138.136 53.1353 137.96C52.4286 137.785 51.3176 137.488 50.6656 137.301C50.0137 137.114 48.8875 136.767 48.1631 136.529C47.4387 136.292 46.4607 135.956 45.9898 135.783C45.5189 135.611 44.7188 135.306 44.2117 135.106C43.7046 134.907 42.8451 134.552 42.3018 134.317C41.7585 134.083 40.7654 133.634 40.0956 133.318C39.4258 133.002 38.4479 132.519 37.9223 132.245C37.3968 131.971 36.4787 131.474 35.8807 131.142C35.2828 130.809 34.4088 130.305 33.938 130.021C33.4671 129.738 32.6669 129.24 32.1598 128.916C31.6527 128.59 30.8084 128.027 30.2829 127.663C29.7574 127.299 28.9282 126.706 28.4389 126.345C27.9496 125.984 27.0605 125.299 26.4632 124.823C25.8659 124.347 24.9472 123.59 24.4216 123.14C23.8961 122.691 23.4338 122.292 23.3943 122.254C23.3541 122.217 23.0136 121.905 22.6369 121.561C22.2602 121.217 21.3408 120.328 20.5947 119.585C19.8479 118.842 18.8712 117.834 18.4247 117.346C17.9775 116.857 17.2564 116.042 16.8217 115.535C16.3864 115.027 15.6179 114.094 15.1134 113.46C14.6089 112.826 13.8094 111.774 13.3359 111.122C12.8624 110.47 12.0557 109.3 11.542 108.521C11.029 107.742 10.3579 106.69 10.051 106.183C9.74409 105.676 9.1876 104.712 8.81353 104.043C8.44012 103.373 7.78616 102.128 7.36073 101.277C6.93463 100.426 6.33467 99.166 6.02778 98.4778C5.72023 97.7896 5.21642 96.5897 4.90755 95.8106C4.59934 95.0316 4.15481 93.8461 3.9197 93.1764C3.68459 92.5066 3.32698 91.4246 3.12546 90.7726C2.92394 90.1207 2.59466 88.98 2.39379 88.2372C2.19293 87.4943 1.86759 86.1607 1.67068 85.2737C1.47377 84.3866 1.20837 83.0675 1.0806 82.3431C0.95284 81.6187 0.788856 80.6111 0.715755 80.104C0.643312 79.5969 0.52477 78.663 0.452327 78.0295C0.379226 77.3953 0.276489 76.3284 0.223145 75.6587C0.169142 74.9889 0.0907722 73.6554 0.0486237 72.6952C0.00252381 71.654 -0.0126233 70.113 0.0110852 68.8755C0.0334766 67.7342 0.0822108 66.3269 0.119749 65.7474C0.157946 65.1678 0.23434 64.1899 0.28966 63.5741C0.345639 62.9584 0.465498 61.8619 0.556381 61.1375C0.647264 60.413 0.825736 59.198 0.952182 58.4374C1.07929 57.6767 1.30254 56.4768 1.44874 55.7702C1.59429 55.0636 1.84586 53.9526 2.00655 53.3006C2.1679 52.6486 2.45899 51.5521 2.65393 50.8639C2.8482 50.1757 3.20581 49.0048 3.4475 48.2626C3.68986 47.5204 4.12583 46.2757 4.41626 45.4967C4.70735 44.7176 5.20457 43.4729 5.52134 42.7307C5.83811 41.9885 6.32479 40.892 6.60337 40.294C6.88194 39.6961 7.37851 38.6885 7.70713 38.0549C8.0351 37.4207 8.52639 36.502 8.79838 36.0134C9.07103 35.5247 9.60447 34.6054 9.98381 33.9719C10.3631 33.3377 11.0145 32.3004 11.4307 31.6669C11.8476 31.0327 12.5476 30.0106 12.9869 29.3949C13.4262 28.7791 14.1532 27.8011 14.603 27.2216C15.0522 26.6421 15.7667 25.753 16.1902 25.2459C16.6136 24.7388 17.3414 23.8946 17.807 23.369C18.2726 22.8435 19.4843 21.5824 20.5005 20.5655C21.516 19.5494 22.8365 18.285 23.4338 17.7568C24.0311 17.2286 24.9202 16.4654 25.4095 16.0603C25.8988 15.656 26.7135 15.0047 27.2206 14.6141C27.7277 14.223 28.5423 13.6112 29.0316 13.2549C29.5209 12.8979 30.5286 12.2018 31.2708 11.7066C32.013 11.212 33.2135 10.4514 33.938 10.0174C34.6624 9.58275 35.7293 8.96699 36.3088 8.64891C36.8884 8.33082 38.1475 7.68214 39.1077 7.20666C40.0679 6.73118 41.5938 6.02587 42.4994 5.63929C43.4049 5.25272 44.6944 4.73114 45.3642 4.48023C46.0339 4.22997 47.2641 3.80125 48.0972 3.52795C48.9303 3.25465 50.1895 2.86741 50.8961 2.66787C51.6028 2.46767 52.4767 2.22927 52.8389 2.13773C53.2011 2.04619 54.1054 1.83808 54.8476 1.67476C55.5898 1.51144 56.7752 1.27304 57.4818 1.14594C58.1885 1.01818 59.3884 0.825876 60.1491 0.71919C60.9097 0.611844 62.1399 0.464327 62.8821 0.390568C63.6243 0.31681 64.7208 0.223953 65.3188 0.184439Z" fill="#1A1A1A" stroke="white" stroke-width="12" mask="url(#path-1-inside-1_544_993)"/>
<path d="M52.5428 21.2255C53.1408 21.0141 53.8217 20.7875 54.0575 20.7217C54.367 20.6354 54.6225 20.6117 54.9795 20.6348C55.3028 20.6552 55.5643 20.7144 55.7368 20.8053C55.8817 20.8811 56.1116 21.0523 56.2472 21.1853C56.3836 21.3177 56.5759 21.6042 56.8564 22.2166L56.8709 24.7191C56.8847 27.1525 56.8808 27.2342 56.7372 27.6827C56.6556 27.9362 56.4962 28.2918 56.3822 28.4729C56.269 28.654 56.0325 28.9379 55.8574 29.1038C55.6822 29.2698 55.4504 29.4516 55.3417 29.5082C55.233 29.5655 54.6555 29.8032 54.0575 30.0377C53.4595 30.2721 52.4967 30.6771 51.9171 30.9386C51.3376 31.2 50.434 31.6386 49.9085 31.9133C49.383 32.1879 48.5242 32.6634 47.9986 32.9696C47.4731 33.2758 46.5399 33.86 45.9242 34.2669C45.3084 34.6746 44.3752 35.3299 43.8497 35.723C43.3241 36.1162 42.5095 36.7596 42.0386 37.1528C41.5677 37.5459 40.728 38.2875 40.1722 38.8005C39.6164 39.3142 38.8287 40.0899 38.4211 40.5246C38.0141 40.9592 37.4181 41.6112 37.0967 41.9734C36.776 42.3356 36.1826 43.0469 35.7789 43.554C35.3752 44.0611 34.768 44.8612 34.4282 45.3321C34.089 45.8029 33.5213 46.64 33.167 47.1925C32.8127 47.745 32.2648 48.6486 31.9506 49.2011C31.6358 49.7536 31.0457 50.887 30.6394 51.7201C30.2324 52.5532 29.6641 53.8275 29.3756 54.5519C29.0878 55.2763 28.6723 56.4176 28.4523 57.0874C28.233 57.7571 27.932 58.7502 27.7838 59.2935C27.6357 59.8369 27.4124 60.7411 27.2873 61.3022C27.1622 61.8632 26.9732 62.8412 26.8665 63.4754C26.7598 64.1089 26.6551 64.7905 26.6327 64.9901C26.6103 65.1896 26.5767 65.486 26.5576 65.6486C26.5385 65.8113 26.5115 66.0339 26.497 66.1426C26.4832 66.2512 26.4522 66.5924 26.4292 66.8999C26.4061 67.2075 26.3725 67.5637 26.3548 67.6902C26.337 67.8166 26.3119 68.9724 26.2994 70.2586C26.2863 71.5447 26.3007 72.9521 26.3317 73.3867C26.362 73.8214 26.4055 74.3844 26.4272 74.638C26.4496 74.8915 26.5253 75.5731 26.5951 76.1527C26.6656 76.7322 26.7993 77.6509 26.8921 78.1942C26.9857 78.7375 27.1819 79.7155 27.3294 80.3675C27.477 81.0194 27.7549 82.1015 27.9472 82.7712C28.1401 83.441 28.4365 84.3899 28.6064 84.8786C28.777 85.3673 29.0714 86.1681 29.2617 86.6567C29.452 87.1454 29.7787 87.931 29.9868 88.4019C30.1955 88.8728 30.5953 89.717 30.8758 90.2788C31.1564 90.8405 31.6747 91.8034 32.027 92.4191C32.38 93.0349 33.0096 94.0569 33.4271 94.6911C33.8447 95.3247 34.4387 96.1841 34.7469 96.601C35.0558 97.0178 35.5464 97.6547 35.8375 98.0169C36.1286 98.3791 36.635 98.9863 36.9617 99.3669C37.289 99.7476 38.1063 100.618 38.7767 101.302C39.4478 101.986 40.3823 102.89 40.8532 103.311C41.324 103.733 42.0208 104.331 42.4008 104.642C42.7808 104.953 43.4631 105.484 43.9155 105.82C44.368 106.157 45.2129 106.749 45.7924 107.137C46.372 107.523 47.2611 108.087 47.7682 108.389C48.2752 108.69 49.2532 109.228 49.9414 109.583C50.6296 109.937 51.5635 110.395 52.0159 110.599C52.4684 110.803 53.3581 111.177 53.9916 111.428C54.6258 111.68 55.2627 111.955 55.4076 112.039C55.5524 112.123 55.8192 112.354 56.0003 112.551C56.1814 112.748 56.4099 113.055 56.5087 113.234C56.6068 113.413 56.7326 113.766 56.7873 114.02C56.865 114.377 56.8874 114.96 56.8887 116.621C56.8893 117.912 56.861 118.918 56.8169 119.157C56.7774 119.374 56.6878 119.663 56.6193 119.799C56.5502 119.934 56.3981 120.152 56.2802 120.282C56.1623 120.412 55.9028 120.598 55.7039 120.694C55.403 120.839 55.2528 120.868 54.8148 120.866C54.3433 120.864 54.1596 120.82 53.0696 120.447C52.3999 120.219 51.3475 119.831 50.7317 119.586C50.116 119.34 49.2269 118.97 48.756 118.761C48.2851 118.553 47.2775 118.071 46.5169 117.691C45.7562 117.311 44.6893 116.748 44.146 116.439C43.6027 116.131 42.8467 115.685 42.4667 115.45C42.0867 115.215 41.3306 114.727 40.7873 114.364C40.244 114.001 39.2957 113.329 38.6799 112.87C38.0641 112.411 37.2047 111.744 36.77 111.388C36.3354 111.031 35.6393 110.441 35.2224 110.075C34.8055 109.71 33.9211 108.877 33.2552 108.225C32.5901 107.573 31.6688 106.624 31.2078 106.117C30.7461 105.61 30.0348 104.795 29.6259 104.306C29.2176 103.817 28.4938 102.898 28.0183 102.265C27.5428 101.63 26.825 100.623 26.4239 100.025C26.0222 99.4275 25.442 98.524 25.1344 98.0169C24.8269 97.5098 24.352 96.6945 24.0787 96.2058C23.8061 95.7172 23.3227 94.7978 23.0053 94.1643C22.6885 93.5301 22.2374 92.5818 22.0042 92.0569C21.7711 91.532 21.3924 90.6278 21.1632 90.0483C20.9341 89.4688 20.6114 88.6093 20.4454 88.1385C20.2801 87.6676 19.9936 86.7937 19.8092 86.1957C19.6248 85.5977 19.3258 84.5309 19.1441 83.8249C18.963 83.1189 18.685 81.8887 18.527 81.0919C18.3689 80.295 18.1786 79.2282 18.1029 78.7211C18.0278 78.214 17.9534 77.7102 17.9382 77.6015C17.9224 77.4929 17.8915 77.2261 17.8684 77.0088C17.8454 76.7915 17.8171 76.5544 17.8059 76.482C17.794 76.4095 17.7631 76.0835 17.7367 75.7575C17.7097 75.4316 17.6801 75.1207 17.6695 75.0661C17.659 75.0114 17.6261 74.5524 17.5951 74.0453C17.5648 73.5382 17.5398 72.0716 17.5398 70.7854C17.5398 69.4992 17.5642 68.0175 17.5931 67.4926C17.6228 66.9677 17.6583 66.4784 17.6722 66.406C17.6867 66.3335 17.715 66.0517 17.7367 65.7804C17.7578 65.5084 17.819 64.9157 17.873 64.4632C17.927 64.0101 18.0469 63.1514 18.1391 62.5534C18.2313 61.9554 18.4243 60.8892 18.5685 60.1826C18.712 59.476 18.9742 58.3353 19.1507 57.6471C19.3278 56.959 19.6209 55.9072 19.8026 55.3093C19.9844 54.7113 20.3091 53.734 20.5244 53.136C20.7398 52.538 21.0645 51.6786 21.2462 51.2262C21.428 50.7731 21.754 50.0026 21.97 49.5139C22.1867 49.0253 22.6747 48.0025 23.0553 47.2419C23.4353 46.4813 24.0353 45.3551 24.3883 44.7394C24.7413 44.1236 25.3307 43.1457 25.6988 42.5661C26.0663 41.9866 26.7255 41.0086 27.1635 40.3929C27.6014 39.7771 28.2857 38.8584 28.6841 38.3513C29.0832 37.8442 29.7905 36.9848 30.2561 36.4415C30.7217 35.8982 31.726 34.8208 32.488 34.0463C33.2493 33.2725 34.2727 32.2794 34.7614 31.8402C35.2501 31.4002 35.8428 30.876 36.0785 30.6752C36.3143 30.4743 36.803 30.0713 37.1652 29.7802C37.5274 29.4891 38.2531 28.9313 38.7787 28.5408C39.3042 28.1502 40.3263 27.4383 41.0507 26.9589C41.7752 26.4795 42.7973 25.8354 43.3228 25.5272C43.8483 25.219 44.6334 24.7738 45.068 24.538C45.5027 24.3029 46.1843 23.9467 46.5827 23.7471C46.9812 23.5469 47.7668 23.1755 48.3279 22.9213C48.889 22.6664 49.8229 22.2673 50.4024 22.0342C50.982 21.8011 51.9448 21.4369 52.5428 21.2255Z" fill="white"/>
<path d="M83.9348 20.9818C84.0738 20.8817 84.3208 20.7559 84.4834 20.7019C84.681 20.6361 84.9444 20.6124 85.2737 20.6308C85.6596 20.6525 86.0265 20.7474 86.9531 21.0655C87.605 21.2887 88.6126 21.6582 89.1922 21.886C89.7717 22.1139 90.5278 22.4247 90.8715 22.5769C91.2153 22.7283 91.9121 23.0477 92.4192 23.2861C92.9263 23.5245 93.8298 23.9776 94.4278 24.2931C95.0258 24.6085 95.959 25.1255 96.5023 25.4422C97.0456 25.759 98.127 26.44 98.9061 26.9556C99.6852 27.4713 100.796 28.2477 101.376 28.681C101.955 29.115 102.785 29.7617 103.22 30.1187C103.654 30.4756 104.366 31.0815 104.8 31.4641C105.234 31.8474 106.09 32.6495 106.701 33.2475C107.312 33.8455 108.201 34.7602 108.677 35.2811C109.153 35.8021 109.879 36.6318 110.291 37.1251C110.704 37.6184 111.475 38.5996 112.005 39.3062C112.536 40.0129 113.312 41.1087 113.731 41.7429C114.151 42.3765 114.775 43.3696 115.119 43.9491C115.463 44.5286 115.992 45.4625 116.294 46.0236C116.596 46.5847 117.048 47.4737 117.299 47.9992C117.55 48.5248 117.977 49.4724 118.249 50.1066C118.521 50.7402 118.906 51.6885 119.105 52.214C119.304 52.7396 119.61 53.5983 119.785 54.1238C119.961 54.6494 120.265 55.6418 120.463 56.33C120.66 57.0182 120.945 58.1147 121.096 58.7667C121.247 59.4187 121.471 60.5007 121.594 61.1704C121.717 61.8402 121.892 62.9374 121.982 63.6071C122.073 64.2769 122.192 65.3141 122.248 65.9121C122.304 66.51 122.372 67.4577 122.4 68.0195C122.428 68.5812 122.45 69.8107 122.45 70.7525C122.45 71.6942 122.428 72.9093 122.401 73.4526C122.373 73.9959 122.322 74.7664 122.286 75.1648C122.25 75.5633 122.204 76.0519 122.185 76.2515C122.165 76.451 122.104 76.9693 122.049 77.4039C121.994 77.8386 121.878 78.6387 121.791 79.1821C121.704 79.7254 121.54 80.6289 121.427 81.1907C121.314 81.7524 121.133 82.5815 121.026 83.0346C120.919 83.4871 120.698 84.332 120.535 84.9115C120.372 85.4911 120.089 86.4242 119.907 86.986C119.723 87.5477 119.409 88.4513 119.208 88.9946C119.007 89.5379 118.657 90.427 118.431 90.9703C118.204 91.5136 117.782 92.4619 117.492 93.0777C117.202 93.6934 116.722 94.6562 116.424 95.218C116.126 95.7797 115.703 96.5496 115.484 96.9302C115.264 97.3109 114.863 97.9774 114.592 98.412C114.321 98.8467 113.861 99.5579 113.57 99.9925C113.28 100.427 112.774 101.153 112.446 101.606C112.118 102.058 111.447 102.933 110.953 103.549C110.459 104.165 109.676 105.098 109.212 105.623C108.748 106.148 107.759 107.186 107.012 107.928C106.267 108.671 105.271 109.616 104.8 110.029C104.329 110.442 103.618 111.047 103.22 111.374C102.821 111.701 101.992 112.345 101.376 112.804C100.76 113.263 99.8413 113.92 99.3342 114.264C98.8271 114.608 97.9531 115.171 97.3914 115.515C96.8296 115.859 95.8964 116.403 95.3169 116.723C94.7374 117.043 93.6408 117.607 92.8802 117.977C92.1195 118.347 91.0968 118.819 90.6081 119.028C90.1195 119.236 89.2745 119.575 88.7312 119.782C88.1879 119.989 87.2692 120.317 86.6896 120.511C85.7874 120.812 85.5648 120.863 85.142 120.862C84.7607 120.861 84.5671 120.824 84.2924 120.7C84.0889 120.608 83.8235 120.413 83.6701 120.243C83.5232 120.081 83.3428 119.813 83.2684 119.651C83.1406 119.371 83.132 119.212 83.1143 116.819C83.1031 115.262 83.1215 114.156 83.163 113.954C83.2005 113.773 83.3177 113.447 83.4244 113.23C83.5311 113.012 83.7636 112.686 83.9421 112.505C84.1206 112.324 84.4261 112.094 84.6217 111.995C84.8173 111.895 85.4812 111.617 86.0969 111.376C86.7127 111.135 87.7499 110.69 88.4019 110.387C89.0539 110.084 90.0464 109.588 90.6081 109.285C91.1699 108.982 91.9845 108.52 92.4192 108.258C92.8538 107.997 93.6244 107.507 94.1315 107.172C94.6386 106.836 95.4684 106.252 95.9755 105.873C96.4826 105.496 97.2682 104.882 97.7207 104.51C98.1738 104.139 98.9147 103.499 99.3671 103.09C99.8202 102.68 100.636 101.89 101.18 101.333C101.724 100.777 102.487 99.959 102.876 99.5151C103.265 99.0712 103.859 98.36 104.198 97.9345C104.536 97.5091 105.049 96.8348 105.338 96.4363C105.627 96.0379 106.102 95.3563 106.393 94.9216C106.683 94.487 107.188 93.6868 107.514 93.1435C107.841 92.6002 108.329 91.7408 108.6 91.2337C108.87 90.7266 109.314 89.8376 109.587 89.258C109.86 88.6785 110.299 87.6709 110.561 87.0189C110.824 86.3669 111.227 85.2704 111.456 84.5822C111.684 83.8941 111.993 82.8937 112.139 82.3596C112.286 81.8255 112.509 80.9365 112.634 80.3839C112.758 79.8314 112.936 78.9647 113.027 78.4576C113.118 77.9505 113.251 77.1056 113.322 76.5807C113.393 76.0559 113.47 75.3888 113.494 75.099C113.518 74.8092 113.549 74.4977 113.563 74.4075C113.577 74.3166 113.612 73.7983 113.64 73.255C113.668 72.7117 113.691 71.5856 113.691 70.7525C113.691 69.9194 113.668 68.7933 113.64 68.25C113.612 67.7066 113.577 67.1877 113.563 67.0975C113.549 67.0066 113.518 66.7103 113.495 66.4389C113.471 66.1669 113.437 65.8265 113.42 65.6816C113.402 65.5367 113.328 64.9881 113.255 64.4632C113.182 63.9384 113.033 63.0493 112.924 62.4876C112.815 61.9265 112.637 61.096 112.53 60.6436C112.423 60.1905 112.23 59.4496 112.103 58.9972C111.975 58.5441 111.721 57.7143 111.537 57.1532C111.354 56.5921 111.063 55.7617 110.892 55.3093C110.721 54.8562 110.416 54.1008 110.214 53.6299C110.014 53.1591 109.659 52.3734 109.427 51.8847C109.195 51.3961 108.729 50.4919 108.392 49.8761C108.054 49.2604 107.512 48.3272 107.187 47.8017C106.862 47.2761 106.328 46.4615 106 45.9906C105.672 45.5198 105.101 44.7341 104.73 44.2454C104.36 43.7568 103.677 42.9119 103.214 42.3686C102.75 41.8252 101.851 40.8519 101.215 40.2045C100.579 39.5578 99.6885 38.6958 99.2354 38.2894C98.7829 37.8824 98.0565 37.2575 97.6219 36.9012C97.1872 36.5443 96.476 35.9871 96.0413 35.6624C95.6067 35.3378 94.7025 34.7095 94.0327 34.2656C93.3629 33.8224 92.3994 33.2179 91.8923 32.9215C91.3852 32.6258 90.3631 32.0772 89.6203 31.7032C88.8774 31.3291 87.8257 30.8312 87.2823 30.5961C86.739 30.3617 85.9981 30.0588 85.6359 29.9231C85.2737 29.7874 84.8437 29.609 84.681 29.5266C84.5183 29.4437 84.2266 29.2178 84.033 29.0235C83.8051 28.7943 83.5851 28.4756 83.1334 27.5608V24.8561C83.1334 22.3944 83.1439 22.1271 83.2519 21.8873C83.3164 21.7425 83.4402 21.5205 83.5265 21.3934C83.6121 21.2663 83.7965 21.0813 83.9348 20.9818Z" fill="white"/>
<path d="M66.5104 36.1781C66.6658 36.0694 66.9431 35.9292 67.1262 35.8659C67.4251 35.7625 67.7327 35.7527 70.0937 35.7671C72.5903 35.7823 72.7438 35.7902 73.0243 35.918C73.187 35.9924 73.4649 36.1847 73.6414 36.346C73.8179 36.5074 74.0398 36.7873 74.3085 37.2976L74.3414 44.904L74.7201 44.9764C74.9282 45.016 75.3359 45.1029 75.6257 45.1694C75.9154 45.2366 76.5081 45.3986 76.9428 45.531C77.3774 45.6627 78.0439 45.8978 78.4246 46.0532C78.8052 46.2086 79.3683 46.4622 79.6759 46.6169C79.9834 46.771 80.5024 47.0601 80.8284 47.2597C81.1544 47.4586 81.6358 47.7806 81.8985 47.9749C82.1613 48.1691 82.6355 48.5603 82.9522 48.8429C83.269 49.126 83.7768 49.6522 84.0804 50.0118C84.384 50.372 84.8404 50.9779 85.0939 51.3579C85.3481 51.7379 85.7722 52.4939 86.037 53.0372C86.3017 53.5805 86.6251 54.3366 86.7561 54.7166C86.8865 55.0965 87.0841 55.7637 87.1948 56.1983C87.3515 56.8141 87.389 57.0828 87.3653 57.4166C87.3475 57.6702 87.2771 57.9586 87.1934 58.1246C87.1157 58.2787 86.9109 58.5401 86.739 58.7054C86.554 58.8833 86.2853 59.0584 86.0805 59.1335C85.7597 59.2514 85.5385 59.2606 83.0346 59.2606C80.5201 59.2606 80.3107 59.2521 79.9887 59.1322C79.7984 59.0617 79.5092 58.8892 79.3466 58.7489C79.1839 58.6086 78.985 58.3926 78.906 58.2682C78.8263 58.1437 78.6386 57.6867 78.4885 57.252C78.3383 56.8174 78.0775 56.195 77.9089 55.869C77.7397 55.543 77.4703 55.0985 77.3096 54.8812C77.1489 54.6639 76.8677 54.3273 76.684 54.1331C76.5002 53.9388 76.1281 53.6121 75.8562 53.408C75.5848 53.2032 75.1251 52.9121 74.8354 52.7613C74.5456 52.6098 73.9977 52.3826 73.617 52.2555C73.2364 52.1284 72.5995 51.9631 72.2011 51.8887C71.8027 51.8136 71.1948 51.7254 70.851 51.6918C70.5073 51.6582 69.6182 51.6424 68.8753 51.6562C68.1325 51.6701 67.3916 51.6997 67.2289 51.7221C67.0662 51.7451 66.6362 51.8222 66.274 51.894C65.9118 51.9657 65.3487 52.1133 65.0227 52.2226C64.6967 52.3312 64.1777 52.544 63.8702 52.6954C63.5626 52.8462 63.0885 53.1353 62.8165 53.3375C62.5451 53.5404 62.1467 53.896 61.932 54.1291C61.718 54.3616 61.4381 54.7152 61.311 54.9141C61.1839 55.113 60.9968 55.4614 60.8948 55.6879C60.7927 55.9145 60.6518 56.3142 60.5813 56.577C60.5115 56.8397 60.4344 57.2026 60.4107 57.3837C60.387 57.5648 60.3692 58.0983 60.3719 58.5691C60.3745 59.04 60.4219 59.6847 60.4772 60.0015C60.5319 60.3183 60.6583 60.7924 60.7571 61.0552C60.8553 61.318 61.0726 61.7401 61.2392 61.9936C61.4065 62.2472 61.7193 62.6173 61.9347 62.8168C62.15 63.0164 62.4885 63.287 62.6867 63.4188C62.885 63.5505 63.3137 63.7928 63.6397 63.9562C63.9657 64.1201 64.588 64.377 65.0227 64.5278C65.4573 64.6779 66.272 64.9163 66.8337 65.0573C67.3955 65.1975 68.2549 65.3879 68.7436 65.4801C69.2323 65.5716 70.4328 65.7665 71.4108 65.9121C72.3888 66.0583 73.5149 66.2374 73.9134 66.3098C74.3118 66.3829 74.9342 66.5035 75.2964 66.5779C75.6586 66.653 76.4739 66.8446 77.1074 67.004C77.7416 67.1633 78.6748 67.4301 79.1819 67.5967C79.689 67.7633 80.4148 68.0261 80.7954 68.1815C81.1761 68.3369 81.7688 68.6043 82.1126 68.7755C82.4563 68.9474 82.9904 69.2391 83.298 69.4248C83.6055 69.6099 84.1397 69.9714 84.4834 70.2283C84.8272 70.4845 85.3613 70.9441 85.6695 71.2504C85.9777 71.5559 86.365 71.984 86.5309 72.2013C86.6962 72.4186 86.961 72.7888 87.1197 73.0245C87.2777 73.2603 87.5622 73.7634 87.7512 74.1441C87.9403 74.5247 88.1978 75.1319 88.3235 75.4941C88.4487 75.8563 88.6278 76.4932 88.7207 76.91C88.8135 77.3269 88.938 78.0078 88.9986 78.4247C89.0664 78.8949 89.1165 79.7563 89.1303 80.6967C89.1468 81.7741 89.125 82.4301 89.0559 82.9688C89.0019 83.3856 88.8813 84.0666 88.7872 84.4835C88.6937 84.9003 88.5 85.5813 88.3571 85.9982C88.2142 86.415 87.9106 87.1408 87.6821 87.6116C87.4536 88.0825 87.0288 88.8234 86.7377 89.258C86.4466 89.6927 85.9731 90.3302 85.686 90.6739C85.3988 91.0177 84.8614 91.5814 84.4913 91.9252C84.1219 92.269 83.4831 92.8031 83.0714 93.1106C82.6605 93.4182 81.9578 93.8844 81.51 94.1465C81.0628 94.4086 80.3114 94.7978 79.8405 95.0125C79.3696 95.2266 78.584 95.54 78.0953 95.7086C77.6066 95.8772 76.9099 96.0906 76.5477 96.1828C76.1854 96.275 75.5486 96.4166 74.3744 96.6458L74.3414 100.427C74.3085 104.19 74.3079 104.209 74.1603 104.487C74.0787 104.641 73.8976 104.893 73.758 105.047C73.6091 105.21 73.3286 105.409 72.6621 105.722H70.0607C68.6303 105.722 67.3553 105.701 67.2289 105.675C67.1024 105.65 66.8206 105.511 66.6032 105.366C66.3695 105.21 66.1225 104.975 65.9987 104.788C65.8834 104.613 65.7432 104.308 65.6865 104.109C65.5989 103.801 65.5831 103.215 65.5812 100.223C65.5798 98.2856 65.5574 96.682 65.5311 96.6609C65.5048 96.6392 65.2314 96.5858 64.9239 96.5417C64.6163 96.4982 63.8899 96.358 63.3104 96.2302C62.7309 96.1031 61.7232 95.8219 61.0713 95.6059C60.2803 95.3444 59.5131 95.0296 58.7663 94.6622C58.1505 94.3586 57.4248 93.9687 57.1528 93.7948C56.8814 93.621 56.3776 93.2673 56.0332 93.0092C55.6888 92.751 55.1296 92.2755 54.7892 91.9529C54.4493 91.6295 53.9475 91.0987 53.6742 90.7727C53.4009 90.4467 52.9636 89.854 52.7028 89.4556C52.442 89.0572 52.093 88.479 51.9277 88.1714C51.7617 87.8639 51.4963 87.3008 51.3363 86.9201C51.1769 86.5395 50.926 85.8579 50.7798 85.4054C50.6329 84.953 50.4321 84.2266 50.3333 83.792C50.2352 83.3573 50.1397 82.7791 50.1212 82.5078C50.0909 82.0646 50.1074 81.9711 50.278 81.593C50.3985 81.3263 50.5763 81.0748 50.7646 80.9048C50.928 80.758 51.194 80.5769 51.3574 80.5025C51.6425 80.3727 51.7696 80.3675 57.6467 80.3675L58.0089 80.5354C58.2078 80.6276 58.4969 80.8278 58.651 80.9799C58.8051 81.1321 58.9869 81.3678 59.0554 81.5035C59.1232 81.6391 59.2846 82.1508 59.4136 82.6395C59.5421 83.1281 59.7258 83.736 59.8213 83.9895C59.9161 84.2431 60.113 84.6876 60.2579 84.9774C60.4028 85.2672 60.659 85.7117 60.8269 85.9652C60.9942 86.2188 61.3999 86.6962 61.7272 87.0255C62.0697 87.3706 62.5741 87.7888 62.9153 88.0101C63.2412 88.2221 63.7451 88.5046 64.0348 88.6377C64.3246 88.7713 64.754 88.9452 64.9898 89.0249C65.2255 89.1046 65.6997 89.2396 66.0435 89.3252C66.3872 89.4102 66.98 89.5267 67.3606 89.584C67.7413 89.6413 68.4229 89.7111 68.8753 89.7388C69.3284 89.7671 70.0245 89.7855 70.423 89.7796C70.8214 89.7743 71.3996 89.7486 71.7072 89.7236C72.0147 89.6979 72.5778 89.6169 72.9585 89.5438C73.3391 89.4707 73.9608 89.3087 74.3414 89.1843C74.7221 89.0591 75.2997 88.8273 75.6257 88.668C75.9516 88.5086 76.441 88.2287 76.7123 88.0456C76.9843 87.8625 77.4137 87.5254 77.6672 87.2962C77.9208 87.067 78.3172 86.6291 78.5484 86.3235C78.7789 86.0179 79.072 85.5602 79.1997 85.3067C79.3268 85.0531 79.5027 84.6382 79.5896 84.3847C79.6765 84.1311 79.7924 83.7162 79.8471 83.4627C79.9011 83.2091 79.9637 82.6612 79.9847 82.2444C80.0078 81.7952 79.99 81.2052 79.9419 80.7955C79.8971 80.4149 79.8023 79.8814 79.7305 79.6101C79.6594 79.3381 79.5027 78.9088 79.3821 78.6552C79.2623 78.4017 79.0107 78.0019 78.8237 77.7662C78.6373 77.5304 78.3153 77.1932 78.1085 77.016C77.9023 76.8396 77.5704 76.59 77.3709 76.4622C77.1713 76.3344 76.7419 76.1033 76.4159 75.9485C76.09 75.7944 75.4228 75.531 74.9342 75.3644C74.4455 75.1971 73.5709 74.9449 72.9914 74.8026C72.4118 74.661 71.4635 74.4549 70.884 74.3456C70.3044 74.2356 69.2079 74.0552 68.4472 73.9432C67.6866 73.8313 66.3978 73.608 65.5825 73.4467C64.7678 73.286 63.641 73.0337 63.0799 72.8869C62.5188 72.74 61.6297 72.4759 61.1042 72.2994C60.5787 72.123 59.8233 71.8424 59.4248 71.6758C59.0264 71.5085 58.3599 71.1931 57.9431 70.9738C57.5262 70.7545 56.919 70.3962 56.593 70.1776C56.267 69.9589 55.7928 69.6105 55.5393 69.4031C55.2857 69.1957 54.8116 68.7465 54.4856 68.4054C54.1596 68.0636 53.7012 67.5038 53.4674 67.1614C53.2336 66.8183 52.8879 66.2269 52.6995 65.8462C52.5112 65.4656 52.2688 64.9025 52.1608 64.595C52.0535 64.2874 51.8895 63.7243 51.7966 63.3437C51.7038 62.963 51.5839 62.3414 51.5306 61.9607C51.4766 61.5807 51.4133 61.0618 51.3896 60.8082C51.3659 60.5547 51.3468 59.8434 51.3468 59.2277C51.3468 58.6119 51.3797 57.8414 51.4206 57.5154C51.4614 57.1894 51.5549 56.6264 51.6287 56.2642C51.7018 55.902 51.8664 55.2796 51.9942 54.8812C52.122 54.4828 52.4098 53.7715 52.6343 53.3006C52.8589 52.8298 53.2152 52.1778 53.4266 51.8518C53.6373 51.5258 53.9607 51.0668 54.1438 50.831C54.3275 50.5953 54.6719 50.1876 54.9097 49.9242C55.1474 49.6608 55.5939 49.2261 55.9015 48.9574C56.209 48.6894 56.6536 48.3239 56.8893 48.1448C57.1251 47.9663 57.6138 47.6331 57.976 47.4046C58.3382 47.1754 58.975 46.8184 59.3919 46.6097C59.8088 46.4016 60.4897 46.098 60.9066 45.9347C61.3235 45.7713 62.0196 45.5303 62.4543 45.3986C62.8889 45.2675 63.7042 45.0706 64.2653 44.962C64.8271 44.8533 65.3526 44.7512 65.5825 44.7064L65.5989 41.0679C65.6147 37.5578 65.62 37.4188 65.7504 37.133C65.8248 36.9697 65.9625 36.7326 66.0566 36.6062C66.1508 36.4797 66.355 36.2868 66.5104 36.1781Z" fill="white"/>
</svg>
