<svg width="140" height="140" viewBox="0 0 140 140" fill="none" xmlns="http://www.w3.org/2000/svg">
<circle cx="70" cy="70" r="68.2882" fill="black" stroke="black" stroke-width="3.4236"/>
<path fill-rule="evenodd" clip-rule="evenodd" d="M70.0001 6.84106C99.5618 6.84106 124.38 27.1358 131.276 54.5474C118.6 55.3482 108.756 70.0466 105.222 77.8586C109.864 72.8543 122.478 59.7112 132.757 62.633C133.038 65.0497 133.183 67.508 133.183 70.0001C133.183 82.2557 129.69 93.6957 123.647 103.381C119.152 100.322 113.744 97.341 107.522 97.501C92.4647 97.8883 82.5273 112.464 79.4408 119.704C83.7377 114.189 95.3696 104.4 107.522 109.358C110.648 110.953 113.402 112.316 115.836 113.47C104.323 125.596 88.0452 133.159 70.0001 133.159C35.1054 133.159 6.81763 104.882 6.81763 70.0001C6.81764 35.1183 35.1054 6.84108 70.0001 6.84106ZM97.4855 20.3923C96.1339 22.2274 91.9781 26.4179 86.1683 28.499C78.9059 31.1003 64.8052 34.6702 53.3671 47.5559C41.9289 60.4418 41.2025 76.8363 42.0498 89.7827C42.8971 102.729 48.7071 112.348 53.3671 115.978C58.0271 119.608 68.2547 125.234 87.2577 106.359C106.261 87.4838 97.6067 63.5274 83.7478 70.5449C88.2666 65.6648 96.299 54.0292 92.2806 46.5276C87.2574 37.1505 76.1825 42.1111 60.629 60.5023C65.0267 56.4893 74.8149 50.1814 78.785 57.0538C83.7476 65.6444 81.6336 70.1214 63.7157 87.726C68.1942 83.9348 78.325 78.0829 83.0213 85.0037C88.8916 93.6548 85.9868 107.206 78.785 110.231C71.5832 113.256 60.0844 111.259 55.3639 98.1315C50.6434 85.0036 47.6178 67.7618 53.3671 52.577C59.1165 37.3924 80.4188 40.5986 88.9522 31.4032C95.7788 24.0467 97.4855 20.9973 97.4855 20.3923Z" fill="#E1C300"/>
</svg>
