<svg width="140" height="140" viewBox="0 0 140 140" fill="none" xmlns="http://www.w3.org/2000/svg">
<mask id="path-1-inside-1_544_989" fill="white">
<path d="M65.3188 0.184439C65.9168 0.144267 66.9389 0.0889478 67.5909 0.0612883C68.2429 0.0329702 69.2064 0.00596925 69.7312 0.000700769C70.2561 -0.00456771 71.3526 0.0204576 72.168 0.0560198C72.9826 0.0909235 74.1239 0.150852 74.7034 0.189049C75.283 0.226587 76.068 0.287833 76.4487 0.324054C76.8293 0.360933 77.6585 0.451156 78.2927 0.524256C78.9262 0.597356 80.0082 0.744215 80.6964 0.850902C81.3846 0.95693 82.3626 1.12025 82.8697 1.21377C83.3768 1.30794 84.2507 1.48378 84.8125 1.60495C85.3743 1.72547 86.3219 1.9474 86.9199 2.0969C87.5179 2.24639 88.4656 2.49796 89.0273 2.65601C89.5891 2.81407 90.5816 3.11174 91.2336 3.31721C91.8855 3.52268 92.9524 3.88357 93.6044 4.11868C94.2564 4.35444 95.2936 4.74826 95.9094 4.99456C96.5252 5.2402 97.5176 5.6551 98.1156 5.91589C98.7136 6.17733 99.9728 6.7707 100.915 7.23498C101.856 7.69927 103.042 8.30712 103.549 8.58503C104.056 8.8636 105.123 9.48001 105.92 9.95549C106.717 10.431 107.991 11.2357 108.752 11.7441C109.512 12.2526 110.535 12.9612 111.024 13.3188C111.512 13.6764 112.328 14.2888 112.835 14.68C113.342 15.0705 114.157 15.7238 114.646 16.1315C115.134 16.5385 115.92 17.2135 116.391 17.631C116.862 18.0492 117.763 18.881 118.394 19.4802C119.025 20.0795 120.045 21.1036 120.661 21.7556C121.278 22.4075 122.172 23.3855 122.649 23.9288C123.125 24.4721 123.866 25.346 124.294 25.8716C124.722 26.3971 125.55 27.4633 126.132 28.2417C126.715 29.0201 127.637 30.3241 128.182 31.1394C128.727 31.9547 129.545 33.2441 130 34.0048C130.456 34.7654 131.085 35.8547 131.398 36.425C131.71 36.9953 132.248 38.0253 132.592 38.7135C132.936 39.4017 133.443 40.4613 133.719 41.0678C133.994 41.6744 134.44 42.7044 134.71 43.3563C134.98 44.0083 135.419 45.1344 135.684 45.8589C135.95 46.5833 136.351 47.7391 136.574 48.4272C136.798 49.1154 137.129 50.1968 137.308 50.831C137.488 51.4645 137.781 52.5762 137.959 53.3006C138.137 54.025 138.4 55.1953 138.545 55.9019C138.689 56.6085 138.911 57.8229 139.04 58.602C139.169 59.3811 139.347 60.6257 139.438 61.3679C139.528 62.1108 139.646 63.2218 139.702 63.8375C139.756 64.4533 139.846 65.802 139.901 66.834C139.955 67.866 140 69.2891 140 69.9951C140 70.7011 139.956 72.1242 139.902 73.1562C139.848 74.1881 139.773 75.3887 139.736 75.8233C139.698 76.258 139.607 77.1622 139.534 77.8319C139.461 78.5017 139.312 79.6575 139.203 80.4003C139.094 81.1432 138.901 82.299 138.775 82.9687C138.648 83.6385 138.456 84.5874 138.347 85.0761C138.238 85.5648 138.016 86.4986 137.852 87.1506C137.689 87.8025 137.407 88.8543 137.225 89.4885C137.044 90.122 136.663 91.3377 136.379 92.1885C136.095 93.0394 135.663 94.2545 135.42 94.8886C135.177 95.5222 134.792 96.4856 134.566 97.029C134.34 97.5723 133.883 98.6095 133.55 99.3339C133.217 100.058 132.647 101.229 132.282 101.935C131.917 102.641 131.361 103.678 131.045 104.24C130.729 104.802 130.166 105.765 129.793 106.381C129.42 106.996 128.667 108.167 128.121 108.982C127.573 109.796 126.649 111.1 126.067 111.879C125.484 112.659 124.641 113.74 124.195 114.283C123.749 114.827 122.992 115.716 122.514 116.259C122.036 116.802 121.146 117.765 120.538 118.399C119.929 119.033 118.94 120.023 118.339 120.599C117.738 121.174 116.743 122.088 116.127 122.63C115.512 123.172 114.445 124.067 113.757 124.621C113.068 125.174 111.972 126.019 111.32 126.498C110.668 126.977 109.498 127.793 108.719 128.31C107.939 128.828 106.71 129.606 105.986 130.04C105.261 130.474 104.194 131.088 103.615 131.406C103.035 131.725 101.835 132.344 100.947 132.784C100.06 133.223 98.8749 133.785 98.3132 134.033C97.7514 134.282 96.6997 134.722 95.9753 135.011C95.2508 135.301 94.1398 135.724 93.5056 135.952C92.8721 136.18 91.8197 136.533 91.1677 136.739C90.5157 136.944 89.5232 137.242 88.9615 137.401C88.3997 137.559 87.452 137.81 86.8541 137.956C86.2561 138.104 85.2188 138.341 84.5491 138.483C83.8793 138.626 82.7235 138.847 81.9806 138.975C81.2378 139.102 80.082 139.28 79.4122 139.37C78.7425 139.461 77.5867 139.594 76.8438 139.666C76.1009 139.739 74.7752 139.843 73.8967 139.899C72.9635 139.958 71.3283 140 69.9617 140C68.6123 140 66.9764 139.959 66.0926 139.901C65.2503 139.847 64.0577 139.757 63.4419 139.701C62.8261 139.644 61.7448 139.525 61.0381 139.436C60.3315 139.346 59.2053 139.182 58.5356 139.071C57.8658 138.96 56.6652 138.737 55.8683 138.574C55.0715 138.412 53.8419 138.136 53.1353 137.96C52.4286 137.785 51.3176 137.488 50.6656 137.301C50.0137 137.114 48.8875 136.767 48.1631 136.529C47.4387 136.292 46.4607 135.956 45.9898 135.783C45.5189 135.611 44.7188 135.306 44.2117 135.106C43.7046 134.907 42.8451 134.552 42.3018 134.317C41.7585 134.083 40.7654 133.634 40.0956 133.318C39.4258 133.002 38.4479 132.519 37.9223 132.245C37.3968 131.971 36.4787 131.474 35.8807 131.142C35.2828 130.809 34.4088 130.305 33.938 130.021C33.4671 129.738 32.6669 129.24 32.1598 128.916C31.6527 128.59 30.8084 128.027 30.2829 127.663C29.7574 127.299 28.9282 126.706 28.4389 126.345C27.9496 125.984 27.0605 125.299 26.4632 124.823C25.8659 124.347 24.9472 123.59 24.4216 123.14C23.8961 122.691 23.4338 122.292 23.3943 122.254C23.3541 122.217 23.0136 121.905 22.6369 121.561C22.2602 121.217 21.3408 120.328 20.5947 119.585C19.8479 118.842 18.8712 117.834 18.4247 117.346C17.9775 116.857 17.2564 116.042 16.8217 115.535C16.3864 115.027 15.6179 114.094 15.1134 113.46C14.6089 112.826 13.8094 111.774 13.3359 111.122C12.8624 110.47 12.0557 109.3 11.542 108.521C11.029 107.742 10.3579 106.69 10.051 106.183C9.74409 105.676 9.1876 104.712 8.81353 104.043C8.44012 103.373 7.78616 102.128 7.36073 101.277C6.93463 100.426 6.33467 99.166 6.02778 98.4778C5.72023 97.7896 5.21642 96.5897 4.90755 95.8106C4.59934 95.0316 4.15481 93.8461 3.9197 93.1764C3.68459 92.5066 3.32698 91.4246 3.12546 90.7726C2.92394 90.1207 2.59466 88.98 2.39379 88.2372C2.19293 87.4943 1.86759 86.1607 1.67068 85.2737C1.47377 84.3866 1.20837 83.0675 1.0806 82.3431C0.95284 81.6187 0.788856 80.6111 0.715755 80.104C0.643312 79.5969 0.52477 78.663 0.452327 78.0295C0.379226 77.3953 0.276489 76.3284 0.223145 75.6587C0.169142 74.9889 0.0907722 73.6554 0.0486237 72.6952C0.00252381 71.654 -0.0126233 70.113 0.0110852 68.8755C0.0334766 67.7342 0.0822108 66.3269 0.119749 65.7474C0.157946 65.1678 0.23434 64.1899 0.28966 63.5741C0.345639 62.9584 0.465498 61.8619 0.556381 61.1375C0.647264 60.413 0.825736 59.198 0.952182 58.4374C1.07929 57.6767 1.30254 56.4768 1.44874 55.7702C1.59429 55.0636 1.84586 53.9526 2.00655 53.3006C2.1679 52.6486 2.45899 51.5521 2.65393 50.8639C2.8482 50.1757 3.20581 49.0048 3.4475 48.2626C3.68986 47.5204 4.12583 46.2757 4.41626 45.4967C4.70735 44.7176 5.20457 43.4729 5.52134 42.7307C5.83811 41.9885 6.32479 40.892 6.60337 40.294C6.88194 39.6961 7.37851 38.6885 7.70713 38.0549C8.0351 37.4207 8.52639 36.502 8.79838 36.0134C9.07103 35.5247 9.60447 34.6054 9.98381 33.9719C10.3631 33.3377 11.0145 32.3004 11.4307 31.6669C11.8476 31.0327 12.5476 30.0106 12.9869 29.3949C13.4262 28.7791 14.1532 27.8011 14.603 27.2216C15.0522 26.6421 15.7667 25.753 16.1902 25.2459C16.6136 24.7388 17.3414 23.8946 17.807 23.369C18.2726 22.8435 19.4843 21.5824 20.5005 20.5655C21.516 19.5494 22.8365 18.285 23.4338 17.7568C24.0311 17.2286 24.9202 16.4654 25.4095 16.0603C25.8988 15.656 26.7135 15.0047 27.2206 14.6141C27.7277 14.223 28.5423 13.6112 29.0316 13.2549C29.5209 12.8979 30.5286 12.2018 31.2708 11.7066C32.013 11.212 33.2135 10.4514 33.938 10.0174C34.6624 9.58275 35.7293 8.96699 36.3088 8.64891C36.8884 8.33082 38.1475 7.68214 39.1077 7.20666C40.0679 6.73118 41.5938 6.02587 42.4994 5.63929C43.4049 5.25272 44.6944 4.73114 45.3642 4.48023C46.0339 4.22997 47.2641 3.80125 48.0972 3.52795C48.9303 3.25465 50.1895 2.86741 50.8961 2.66787C51.6028 2.46767 52.4767 2.22927 52.8389 2.13773C53.2011 2.04619 54.1054 1.83808 54.8476 1.67476C55.5898 1.51144 56.7752 1.27304 57.4818 1.14594C58.1885 1.01818 59.3884 0.825876 60.1491 0.71919C60.9097 0.611844 62.1399 0.464327 62.8821 0.390568C63.6243 0.31681 64.7208 0.223953 65.3188 0.184439Z"/>
</mask>
<path d="M65.3188 0.184439C65.9168 0.144267 66.9389 0.0889478 67.5909 0.0612883C68.2429 0.0329702 69.2064 0.00596925 69.7312 0.000700769C70.2561 -0.00456771 71.3526 0.0204576 72.168 0.0560198C72.9826 0.0909235 74.1239 0.150852 74.7034 0.189049C75.283 0.226587 76.068 0.287833 76.4487 0.324054C76.8293 0.360933 77.6585 0.451156 78.2927 0.524256C78.9262 0.597356 80.0082 0.744215 80.6964 0.850902C81.3846 0.95693 82.3626 1.12025 82.8697 1.21377C83.3768 1.30794 84.2507 1.48378 84.8125 1.60495C85.3743 1.72547 86.3219 1.9474 86.9199 2.0969C87.5179 2.24639 88.4656 2.49796 89.0273 2.65601C89.5891 2.81407 90.5816 3.11174 91.2336 3.31721C91.8855 3.52268 92.9524 3.88357 93.6044 4.11868C94.2564 4.35444 95.2936 4.74826 95.9094 4.99456C96.5252 5.2402 97.5176 5.6551 98.1156 5.91589C98.7136 6.17733 99.9728 6.7707 100.915 7.23498C101.856 7.69927 103.042 8.30712 103.549 8.58503C104.056 8.8636 105.123 9.48001 105.92 9.95549C106.717 10.431 107.991 11.2357 108.752 11.7441C109.512 12.2526 110.535 12.9612 111.024 13.3188C111.512 13.6764 112.328 14.2888 112.835 14.68C113.342 15.0705 114.157 15.7238 114.646 16.1315C115.134 16.5385 115.92 17.2135 116.391 17.631C116.862 18.0492 117.763 18.881 118.394 19.4802C119.025 20.0795 120.045 21.1036 120.661 21.7556C121.278 22.4075 122.172 23.3855 122.649 23.9288C123.125 24.4721 123.866 25.346 124.294 25.8716C124.722 26.3971 125.55 27.4633 126.132 28.2417C126.715 29.0201 127.637 30.3241 128.182 31.1394C128.727 31.9547 129.545 33.2441 130 34.0048C130.456 34.7654 131.085 35.8547 131.398 36.425C131.71 36.9953 132.248 38.0253 132.592 38.7135C132.936 39.4017 133.443 40.4613 133.719 41.0678C133.994 41.6744 134.44 42.7044 134.71 43.3563C134.98 44.0083 135.419 45.1344 135.684 45.8589C135.95 46.5833 136.351 47.7391 136.574 48.4272C136.798 49.1154 137.129 50.1968 137.308 50.831C137.488 51.4645 137.781 52.5762 137.959 53.3006C138.137 54.025 138.4 55.1953 138.545 55.9019C138.689 56.6085 138.911 57.8229 139.04 58.602C139.169 59.3811 139.347 60.6257 139.438 61.3679C139.528 62.1108 139.646 63.2218 139.702 63.8375C139.756 64.4533 139.846 65.802 139.901 66.834C139.955 67.866 140 69.2891 140 69.9951C140 70.7011 139.956 72.1242 139.902 73.1562C139.848 74.1881 139.773 75.3887 139.736 75.8233C139.698 76.258 139.607 77.1622 139.534 77.8319C139.461 78.5017 139.312 79.6575 139.203 80.4003C139.094 81.1432 138.901 82.299 138.775 82.9687C138.648 83.6385 138.456 84.5874 138.347 85.0761C138.238 85.5648 138.016 86.4986 137.852 87.1506C137.689 87.8025 137.407 88.8543 137.225 89.4885C137.044 90.122 136.663 91.3377 136.379 92.1885C136.095 93.0394 135.663 94.2545 135.42 94.8886C135.177 95.5222 134.792 96.4856 134.566 97.029C134.34 97.5723 133.883 98.6095 133.55 99.3339C133.217 100.058 132.647 101.229 132.282 101.935C131.917 102.641 131.361 103.678 131.045 104.24C130.729 104.802 130.166 105.765 129.793 106.381C129.42 106.996 128.667 108.167 128.121 108.982C127.573 109.796 126.649 111.1 126.067 111.879C125.484 112.659 124.641 113.74 124.195 114.283C123.749 114.827 122.992 115.716 122.514 116.259C122.036 116.802 121.146 117.765 120.538 118.399C119.929 119.033 118.94 120.023 118.339 120.599C117.738 121.174 116.743 122.088 116.127 122.63C115.512 123.172 114.445 124.067 113.757 124.621C113.068 125.174 111.972 126.019 111.32 126.498C110.668 126.977 109.498 127.793 108.719 128.31C107.939 128.828 106.71 129.606 105.986 130.04C105.261 130.474 104.194 131.088 103.615 131.406C103.035 131.725 101.835 132.344 100.947 132.784C100.06 133.223 98.8749 133.785 98.3132 134.033C97.7514 134.282 96.6997 134.722 95.9753 135.011C95.2508 135.301 94.1398 135.724 93.5056 135.952C92.8721 136.18 91.8197 136.533 91.1677 136.739C90.5157 136.944 89.5232 137.242 88.9615 137.401C88.3997 137.559 87.452 137.81 86.8541 137.956C86.2561 138.104 85.2188 138.341 84.5491 138.483C83.8793 138.626 82.7235 138.847 81.9806 138.975C81.2378 139.102 80.082 139.28 79.4122 139.37C78.7425 139.461 77.5867 139.594 76.8438 139.666C76.1009 139.739 74.7752 139.843 73.8967 139.899C72.9635 139.958 71.3283 140 69.9617 140C68.6123 140 66.9764 139.959 66.0926 139.901C65.2503 139.847 64.0577 139.757 63.4419 139.701C62.8261 139.644 61.7448 139.525 61.0381 139.436C60.3315 139.346 59.2053 139.182 58.5356 139.071C57.8658 138.96 56.6652 138.737 55.8683 138.574C55.0715 138.412 53.8419 138.136 53.1353 137.96C52.4286 137.785 51.3176 137.488 50.6656 137.301C50.0137 137.114 48.8875 136.767 48.1631 136.529C47.4387 136.292 46.4607 135.956 45.9898 135.783C45.5189 135.611 44.7188 135.306 44.2117 135.106C43.7046 134.907 42.8451 134.552 42.3018 134.317C41.7585 134.083 40.7654 133.634 40.0956 133.318C39.4258 133.002 38.4479 132.519 37.9223 132.245C37.3968 131.971 36.4787 131.474 35.8807 131.142C35.2828 130.809 34.4088 130.305 33.938 130.021C33.4671 129.738 32.6669 129.24 32.1598 128.916C31.6527 128.59 30.8084 128.027 30.2829 127.663C29.7574 127.299 28.9282 126.706 28.4389 126.345C27.9496 125.984 27.0605 125.299 26.4632 124.823C25.8659 124.347 24.9472 123.59 24.4216 123.14C23.8961 122.691 23.4338 122.292 23.3943 122.254C23.3541 122.217 23.0136 121.905 22.6369 121.561C22.2602 121.217 21.3408 120.328 20.5947 119.585C19.8479 118.842 18.8712 117.834 18.4247 117.346C17.9775 116.857 17.2564 116.042 16.8217 115.535C16.3864 115.027 15.6179 114.094 15.1134 113.46C14.6089 112.826 13.8094 111.774 13.3359 111.122C12.8624 110.47 12.0557 109.3 11.542 108.521C11.029 107.742 10.3579 106.69 10.051 106.183C9.74409 105.676 9.1876 104.712 8.81353 104.043C8.44012 103.373 7.78616 102.128 7.36073 101.277C6.93463 100.426 6.33467 99.166 6.02778 98.4778C5.72023 97.7896 5.21642 96.5897 4.90755 95.8106C4.59934 95.0316 4.15481 93.8461 3.9197 93.1764C3.68459 92.5066 3.32698 91.4246 3.12546 90.7726C2.92394 90.1207 2.59466 88.98 2.39379 88.2372C2.19293 87.4943 1.86759 86.1607 1.67068 85.2737C1.47377 84.3866 1.20837 83.0675 1.0806 82.3431C0.95284 81.6187 0.788856 80.6111 0.715755 80.104C0.643312 79.5969 0.52477 78.663 0.452327 78.0295C0.379226 77.3953 0.276489 76.3284 0.223145 75.6587C0.169142 74.9889 0.0907722 73.6554 0.0486237 72.6952C0.00252381 71.654 -0.0126233 70.113 0.0110852 68.8755C0.0334766 67.7342 0.0822108 66.3269 0.119749 65.7474C0.157946 65.1678 0.23434 64.1899 0.28966 63.5741C0.345639 62.9584 0.465498 61.8619 0.556381 61.1375C0.647264 60.413 0.825736 59.198 0.952182 58.4374C1.07929 57.6767 1.30254 56.4768 1.44874 55.7702C1.59429 55.0636 1.84586 53.9526 2.00655 53.3006C2.1679 52.6486 2.45899 51.5521 2.65393 50.8639C2.8482 50.1757 3.20581 49.0048 3.4475 48.2626C3.68986 47.5204 4.12583 46.2757 4.41626 45.4967C4.70735 44.7176 5.20457 43.4729 5.52134 42.7307C5.83811 41.9885 6.32479 40.892 6.60337 40.294C6.88194 39.6961 7.37851 38.6885 7.70713 38.0549C8.0351 37.4207 8.52639 36.502 8.79838 36.0134C9.07103 35.5247 9.60447 34.6054 9.98381 33.9719C10.3631 33.3377 11.0145 32.3004 11.4307 31.6669C11.8476 31.0327 12.5476 30.0106 12.9869 29.3949C13.4262 28.7791 14.1532 27.8011 14.603 27.2216C15.0522 26.6421 15.7667 25.753 16.1902 25.2459C16.6136 24.7388 17.3414 23.8946 17.807 23.369C18.2726 22.8435 19.4843 21.5824 20.5005 20.5655C21.516 19.5494 22.8365 18.285 23.4338 17.7568C24.0311 17.2286 24.9202 16.4654 25.4095 16.0603C25.8988 15.656 26.7135 15.0047 27.2206 14.6141C27.7277 14.223 28.5423 13.6112 29.0316 13.2549C29.5209 12.8979 30.5286 12.2018 31.2708 11.7066C32.013 11.212 33.2135 10.4514 33.938 10.0174C34.6624 9.58275 35.7293 8.96699 36.3088 8.64891C36.8884 8.33082 38.1475 7.68214 39.1077 7.20666C40.0679 6.73118 41.5938 6.02587 42.4994 5.63929C43.4049 5.25272 44.6944 4.73114 45.3642 4.48023C46.0339 4.22997 47.2641 3.80125 48.0972 3.52795C48.9303 3.25465 50.1895 2.86741 50.8961 2.66787C51.6028 2.46767 52.4767 2.22927 52.8389 2.13773C53.2011 2.04619 54.1054 1.83808 54.8476 1.67476C55.5898 1.51144 56.7752 1.27304 57.4818 1.14594C58.1885 1.01818 59.3884 0.825876 60.1491 0.71919C60.9097 0.611844 62.1399 0.464327 62.8821 0.390568C63.6243 0.31681 64.7208 0.223953 65.3188 0.184439Z" fill="#D89B00" stroke="#1A1A1A" stroke-width="12" mask="url(#path-1-inside-1_544_989)"/>
<path d="M48.8017 22.4749C50.7164 21.6908 52.7217 20.9067 53.2508 20.7457C53.7869 20.5777 54.6294 20.5847 55.1307 20.7667C55.7295 20.9697 56.0567 22.3979 56.1124 28.6354L52.4571 30.3086C50.4449 31.2257 47.2352 33.0458 45.3204 34.348C43.4057 35.6571 40.9549 37.4982 39.8757 38.4573C38.7896 39.4094 36.6938 41.7616 35.2108 43.6868C33.7278 45.612 31.5554 49.1543 30.3857 51.5625C29.216 53.9707 27.7887 57.7511 27.2108 59.9633C26.6329 62.1825 26.1664 66.9709 26.1664 70.6392C26.1664 74.3776 26.6399 79.131 27.2456 81.4902C27.8374 83.8004 29.2439 87.5807 30.3648 89.891C31.4858 92.2012 33.8949 95.8695 35.726 98.0467C37.5572 100.224 40.1542 102.919 41.491 104.046C42.8278 105.166 45.4945 107.036 47.4092 108.205C49.3239 109.374 51.6703 110.571 52.6311 110.872C53.585 111.173 54.7756 111.768 55.27 112.202C55.7713 112.636 56.1751 114.414 56.1751 116.143C56.1751 117.872 55.7713 119.693 55.27 120.176C54.5459 120.89 53.5015 120.694 49.8461 119.175C47.3535 118.139 43.2874 115.989 40.7948 114.393C38.3022 112.804 34.438 109.633 32.203 107.344C29.968 105.061 26.7722 100.987 25.1081 98.2917C23.4441 95.5965 21.0559 90.395 19.8096 86.7407C17.686 80.5171 17.5398 79.488 17.5398 70.6392C17.5468 61.8604 17.7069 60.7193 19.7817 54.5378C21.1603 50.4214 23.4023 45.759 25.6582 42.3007C27.6634 39.2274 30.8731 35.167 32.7878 33.2699C34.7025 31.3727 38.3022 28.4884 40.7948 26.8643C43.2874 25.2401 46.887 23.266 48.8017 22.4749Z" fill="#252525"/>
<path d="M82.4309 24.8411C82.3335 22.1599 82.5702 20.9627 83.2386 20.7527C83.7608 20.5847 85.0001 20.6617 85.9888 20.9277C86.9845 21.1868 89.8322 22.4329 92.3178 23.693C94.8034 24.9531 98.2569 27.0183 99.9766 28.2784C101.696 29.5385 104.997 32.5768 107.301 35.027C109.613 37.4772 112.621 41.3766 113.985 43.6868C115.35 45.997 117.265 50.0924 118.239 52.7876C119.214 55.4829 120.356 59.9703 120.788 62.7635C121.212 65.5568 121.547 69.3371 121.54 71.1643C121.526 72.9914 121.094 76.8488 120.579 79.74C120.071 82.6243 118.789 87.1957 117.731 89.891C116.673 92.5862 114.473 96.8426 112.85 99.3418C111.221 101.841 107.427 106.216 104.412 109.052C100.248 112.972 97.2612 115.037 91.9697 117.648C87.1028 120.05 84.6242 120.918 83.7329 120.54C82.6746 120.085 82.5006 119.343 82.9183 112.447L88.8365 109.346C92.095 107.638 96.0079 105.096 97.5397 103.696C99.0715 102.296 101.522 99.7198 102.984 97.9697C104.447 96.2195 106.682 92.7402 107.942 90.241C109.202 87.7348 110.748 83.6464 111.367 81.1402C111.987 78.6339 112.495 73.9085 112.495 70.6392C112.495 67.3699 111.987 62.6445 111.367 60.1383C110.748 57.632 109.299 53.6977 108.151 51.3875C107.002 49.0773 105.087 45.927 103.89 44.3869C102.692 42.8467 100.93 40.8375 99.9766 39.9275C99.0158 39.0174 96.9827 37.2322 95.451 35.9581C93.9192 34.684 90.3961 32.5138 82.5702 28.6354L82.4309 24.8411Z" fill="#252525"/>
<path d="M57.9854 48.0342C59.4405 46.5711 61.8914 44.7439 63.4231 43.9738C65.6999 42.8257 67.3082 42.6087 72.2447 42.7767C77.6407 42.9657 78.5876 43.2038 81.2543 45.0869C82.8974 46.242 85.1951 48.5522 88.4884 53.2637L86.7477 54.6498C85.7869 55.4128 84.2203 56.2109 83.2664 56.4209C81.8879 56.722 81.0941 56.2949 79.437 54.3278C78.2882 52.9696 76.645 51.5135 75.7817 51.0935C74.9183 50.6804 73.115 50.3374 71.7782 50.3374C70.4414 50.3374 68.4014 50.8064 67.2525 51.3875C66.1037 51.9615 64.2169 53.7747 63.0541 55.4128C61.8983 57.051 60.9584 58.7802 60.9653 59.2632C60.9793 59.8933 62.6433 60.1383 66.9044 60.1383C70.1559 60.1383 73.4492 60.4533 74.2151 60.8383C74.981 61.2234 75.6076 61.8534 75.6076 62.2385C75.6076 62.6235 74.7443 64.0586 71.7782 67.902L65.686 67.874C62.2882 67.853 59.4405 68.147 59.2456 68.539C59.0506 68.9241 59.0506 69.8692 59.2456 70.6392C59.5659 71.9343 60.1716 72.0394 67.2525 72.0394C73.4423 72.0394 74.981 72.2424 75.2595 73.0894C75.4544 73.6635 74.9044 75.2386 72.4745 79.033H66.7303C61.4527 79.04 60.9862 79.152 60.9862 80.4401C60.9862 81.2102 62.0167 83.1774 63.2769 84.8155C64.7251 86.6917 66.5911 88.1548 68.3248 88.7709C69.9331 89.3379 72.0985 89.5689 73.5189 89.3169C74.8557 89.0789 76.8191 88.0078 77.8774 86.9367C78.9357 85.8656 80.2377 84.3605 80.7669 83.5904C81.672 82.2673 81.8879 82.2463 84.6868 83.2404C86.3091 83.8144 87.7573 84.6825 87.8896 85.1655C88.0288 85.6486 87.3604 87.4547 86.3996 89.1909C85.3691 91.0531 83.3013 93.2583 81.3517 94.5744C78.5319 96.4786 77.2717 96.8496 72.8226 97.0946C68.9027 97.3046 66.8209 97.0666 64.4675 96.1215C62.7478 95.4285 60.1298 93.7483 58.6607 92.3762C57.1916 91.0111 55.2769 88.6308 54.4066 87.0907C53.5293 85.5506 52.464 83.1073 51.2386 79.04H46.3648C43.0646 79.04 41.4144 78.76 41.2404 78.1649C41.1081 77.6819 41.8113 76.1137 42.807 74.6786C44.4153 72.3684 44.9654 72.0674 47.5833 72.0534C50.4031 72.0394 50.5424 71.9413 50.5424 69.9392C50.5424 67.846 50.5285 67.839 46.5389 67.867C44.1368 67.888 42.1873 67.5379 41.6651 66.9919C40.9688 66.2638 41.2056 65.5078 42.8835 63.1135C44.8122 60.3623 45.209 60.1383 48.1055 60.1383C50.4658 60.1383 51.3431 59.8372 51.6633 58.9132C51.8931 58.2411 52.8122 56.1129 53.7103 54.1877C54.6016 52.2626 56.5232 49.4903 57.9854 48.0342Z" fill="#252525"/>
</svg>
